<svg viewBox="0 0 400 400" xmlns="http://www.w3.org/2000/svg">
  <!-- Outer shield -->
  <path d="M200 20 L340 70 L340 200 Q340 280 200 350 Q60 280 60 200 L60 70 Z" 
        fill="#1e40af" stroke="none"/>
  
  <!-- Middle white border -->
  <path d="M200 35 L320 80 L320 195 Q320 265 200 325 Q80 265 80 195 L80 80 Z" 
        fill="white" stroke="none"/>
  
  <!-- Inner shield -->
  <path d="M200 50 L300 90 L300 190 Q300 250 200 300 Q100 250 100 190 L100 90 Z" 
        fill="#1e40af" stroke="none"/>
  
  <!-- Chart bars (representing growth) -->
  <rect x="130" y="220" width="12" height="40" fill="white"/>
  <rect x="150" y="210" width="12" height="50" fill="white"/>
  <rect x="170" y="200" width="12" height="60" fill="white"/>
  <rect x="190" y="185" width="12" height="75" fill="white"/>
  <rect x="210" y="170" width="12" height="90" fill="white"/>
  <rect x="230" y="155" width="12" height="105" fill="white"/>
  <rect x="250" y="140" width="12" height="120" fill="white"/>
  
  <!-- Upward trending arrow -->
  <path d="M140 230 L180 190 L200 210 L260 150 L275 165 L215 225 L235 245 L220 260 L200 240 L160 280 L145 265 Z" 
        fill="white" stroke="none"/>
  
  <!-- Lion symbol at bottom -->
  <g transform="translate(200, 280)">
    <!-- Lion head circle -->
    <circle cx="0" cy="0" r="12" fill="white"/>
    <!-- Lion mane -->
    <path d="M-8 -8 Q0 -15 8 -8 Q12 0 8 8 Q0 12 -8 8 Q-12 0 -8 -8 Z" fill="white"/>
    <!-- Lion features -->
    <circle cx="-3" cy="-2" r="1" fill="#1e40af"/>
    <circle cx="3" cy="-2" r="1" fill="#1e40af"/>
    <path d="M-2 2 Q0 4 2 2" stroke="#1e40af" stroke-width="1" fill="none"/>
  </g>
</svg>