<?xml version="1.0" encoding="UTF-8"?>
<svg version="1.1" xmlns="http://www.w3.org/2000/svg" width="840" height="774">
<path d="M0 0 C277.2 0 554.4 0 840 0 C840 255.42 840 510.84 840 774 C562.8 774 285.6 774 0 774 C0 518.58 0 263.16 0 0 Z " fill="#FEFEFE" transform="translate(0,0)"/>
<path d="M0 0 C6.47151395 2.19886136 13.01106108 3.93180392 19.63671875 5.59765625 C27.43018357 7.58519427 35.21070885 9.59276922 42.94921875 11.78515625 C48.88239418 13.46149879 54.83597772 15.00557034 60.82421875 16.47265625 C69.18234991 18.52263887 77.47243529 20.78599692 85.76171875 23.09765625 C103.02938554 27.90456173 120.39467487 32.25498755 137.85546875 36.30078125 C140.49839974 36.92198298 143.13026594 37.56416367 145.76171875 38.23046875 C149.00822738 39.03533235 152.20620629 39.66432938 155.51171875 40.16015625 C155.51171875 40.82015625 155.51171875 41.48015625 155.51171875 42.16015625 C156.445 42.26457031 157.37828125 42.36898437 158.33984375 42.4765625 C164.38728114 43.34113332 170.20548728 45.22292705 176.06640625 46.90039062 C176.99195313 47.16013672 177.9175 47.41988281 178.87109375 47.6875 C179.69061523 47.92202881 180.51013672 48.15655762 181.35449219 48.39819336 C184.29857644 49.10871663 187.22888017 49.67253159 190.20904541 50.20777893 C191.20149387 50.38652841 192.19394234 50.56527788 193.216465 50.74944401 C193.97389874 50.88497905 194.73133247 51.02051409 195.51171875 51.16015625 C195.55856225 79.10801991 195.59376789 107.05587764 195.61534309 135.00377274 C195.62562973 147.9821835 195.63963979 160.96056979 195.66259766 173.93896484 C195.68261186 185.25872177 195.69545415 196.57846095 195.69989574 207.89823508 C195.70248958 213.88485903 195.70853107 219.87143226 195.72317886 225.85803986 C195.73689002 231.50834167 195.74091443 237.15857252 195.73793411 242.80888939 C195.73847829 244.86779098 195.74237425 246.92669529 195.7501297 248.98558235 C195.81365811 266.74210961 195.22664316 284.06955505 190.08691406 301.16748047 C189.21326854 304.19409114 188.46682732 307.25089375 187.70166016 310.30639648 C180.49642689 338.77127328 165.17758426 366.53583995 146.51171875 389.16015625 C145.1571528 390.88901015 143.80296745 392.61816234 142.44921875 394.34765625 C139.07180492 398.54899563 135.52174826 402.56696711 131.8828125 406.54296875 C130.57638852 407.98498534 129.27665791 409.43353517 128.00805664 410.90893555 C123.2649262 416.42505114 118.22940588 421.59203713 113.07421875 426.72265625 C112.26662109 427.53412109 111.45902344 428.34558594 110.62695312 429.18164062 C105.75195001 434.04878716 100.77051518 438.7109142 95.51171875 443.16015625 C94.86533447 443.70792725 94.2189502 444.25569824 93.55297852 444.82006836 C83.47088404 453.29997435 73.14053178 461.37973472 62.51171875 469.16015625 C61.79902832 469.68464355 61.08633789 470.20913086 60.35205078 470.74951172 C30.82123179 492.45586995 30.82123179 492.45586995 19.19140625 497.828125 C15.37149902 499.72694186 11.73930751 501.91801647 8.07421875 504.09765625 C6.60167004 504.96762996 5.12901562 505.83742479 3.65625 506.70703125 C1.1488234 508.18892667 -1.35322366 509.67851895 -3.8515625 511.17578125 C-4.80417969 511.7275 -5.75679687 512.27921875 -6.73828125 512.84765625 C-7.95257813 513.56501953 -7.95257813 513.56501953 -9.19140625 514.296875 C-12.2342148 515.44051563 -13.39098437 515.20133797 -16.48828125 514.16015625 C-19.55333773 512.756671 -22.51992404 511.19408119 -25.48828125 509.59765625 C-26.33696777 509.14511475 -27.1856543 508.69257324 -28.06005859 508.22631836 C-35.04929808 504.46547972 -41.81060819 500.45351188 -48.48828125 496.16015625 C-49.8254983 495.30855836 -51.16273925 494.45699801 -52.5 493.60546875 C-77.17124904 477.82764049 -101.24882133 460.86717894 -122.64453125 440.79296875 C-124.82038415 438.77851153 -127.01965384 436.83176636 -129.265625 434.8984375 C-133.8917752 430.86762422 -138.22456497 426.5708889 -142.55078125 422.22265625 C-143.69643555 421.08280273 -143.69643555 421.08280273 -144.86523438 419.91992188 C-149.61360196 415.16343048 -154.1241267 410.26992473 -158.48828125 405.16015625 C-159.37731171 404.13906821 -160.26661331 403.11821615 -161.15625 402.09765625 C-207.4258316 348.15234561 -221.61838986 290.19138945 -221.09664488 220.58996749 C-221.05843905 214.60708598 -221.05555871 208.62417427 -221.04849243 202.64118958 C-221.03004448 191.37643002 -220.9810869 180.11203123 -220.92039549 168.84742862 C-220.85269583 155.99559686 -220.82018384 143.14374538 -220.79022288 130.29177892 C-220.72796362 103.91437346 -220.62283051 77.53728531 -220.48828125 51.16015625 C-219.67560791 50.95334229 -218.86293457 50.74652832 -218.02563477 50.53344727 C-215.01889534 49.76652519 -212.01297041 48.9965101 -209.00756836 48.22436523 C-207.70515367 47.89043358 -206.40241913 47.55774693 -205.09936523 47.22631836 C-203.22947458 46.75048844 -201.36080995 46.26984865 -199.4921875 45.7890625 C-198.36627197 45.5010376 -197.24035645 45.2130127 -196.08032227 44.91625977 C-193.58021534 44.41235836 -193.58021534 44.41235836 -192.48828125 43.16015625 C-189.91461313 42.6546143 -187.32954296 42.26035339 -184.73828125 41.85546875 C-182.12697778 41.29680046 -179.80616632 40.61874499 -177.296875 39.74609375 C-172.12743022 37.97349769 -166.8848508 36.82352411 -161.55078125 35.66015625 C-149.25285927 32.8969172 -137.05701851 29.7845445 -124.86328125 26.59765625 C-123.97230743 26.36626953 -123.08133362 26.13488281 -122.1633606 25.89648438 C-112.0180286 23.25835475 -101.96590676 20.47170192 -91.99829102 17.22143555 C-87.24829609 15.7852369 -82.46696561 14.81903466 -77.6015625 13.84375 C-74.20597831 13.09817003 -71.02475683 12.0598545 -67.75878906 10.88647461 C-65.48526935 10.15919277 -63.27637064 9.68424914 -60.9296875 9.25390625 C-55.27457145 8.15663718 -49.73836082 6.71234992 -44.17578125 5.22265625 C-36.81318301 3.27078296 -29.46143904 1.39277627 -22.01171875 -0.19921875 C-19.43576475 -0.78649764 -19.43576475 -0.78649764 -16.90625 -1.92578125 C-11.28326784 -4.05143202 -5.44893952 -1.91740146 0 0 Z " fill="#234487" transform="translate(446.48828125,52.83984375)"/>
<path d="M0 0 C4.2388411 1.19120393 8.54160407 2.1148657 12.83349609 3.09326172 C19.81475647 4.72079867 26.62537018 6.6103417 33.43359375 8.84643555 C39.22659503 10.71136638 45.09748643 12.01034256 51.04516602 13.27929688 C55.65358277 14.26670756 60.14403735 15.40419349 64.64208984 16.81982422 C76.67163803 20.55614252 88.879391 23.53428752 101.13549805 26.41796875 C108.03948626 28.05892894 114.8410023 29.90018942 121.62866211 31.96557617 C127.80243165 33.83430607 134.03208876 35.29308238 140.33349609 36.65576172 C141.89878319 37.0023487 143.46387657 37.34981132 145.02880859 37.69799805 C145.83592285 37.87752518 146.64303711 38.05705231 147.47460938 38.24201965 C148.08804199 38.37855453 148.70147461 38.51508942 149.33349609 38.65576172 C149.38031041 61.49189573 149.41553105 84.32802177 149.43712044 107.16419411 C149.44741321 117.76849603 149.46143517 128.37276805 149.484375 138.97705078 C149.50437024 148.22459731 149.51722704 157.47212218 149.52167308 166.71968973 C149.52427011 171.61177464 149.53033222 176.50379761 149.54495621 181.39586258 C149.55863724 186.01033078 149.56269769 190.62471213 149.55971146 195.23919868 C149.56025695 196.92328299 149.56417123 198.60737052 149.57190704 200.29143715 C149.69741492 229.05034485 142.79737256 255.77126174 128.33349609 280.65576172 C127.888125 281.42887695 127.44275391 282.20199219 126.98388672 282.99853516 C121.33767359 292.75820474 115.72275169 302.10915284 108.33349609 310.65576172 C107.80884766 311.39826172 107.28419922 312.14076172 106.74365234 312.90576172 C106.27830078 313.48326172 105.81294922 314.06076172 105.33349609 314.65576172 C104.67349609 314.65576172 104.01349609 314.65576172 103.33349609 314.65576172 C103.33349609 244.69576172 103.33349609 174.73576172 103.33349609 102.65576172 C111.20849609 107.15576172 111.20849609 107.15576172 113.86083984 109.01513672 C114.42480469 109.40830078 114.98876953 109.80146484 115.56982422 110.20654297 C116.13121094 110.60228516 116.69259766 110.99802734 117.27099609 111.40576172 C117.85945313 111.81697266 118.44791016 112.22818359 119.05419922 112.65185547 C120.48249326 113.65050008 121.90826908 114.65274481 123.33349609 115.65576172 C122.85017372 106.96777128 121.45444778 98.7546343 119.52099609 90.28076172 C116.82452339 78.11815644 114.46258047 65.92930694 112.33349609 53.65576172 C104.80270142 56.84345759 97.57753065 60.55631762 90.33349609 64.34326172 C89.13493772 64.96745937 87.93628782 65.59148132 86.73754883 66.21533203 C78.63693038 70.43503409 70.55533644 74.6903013 62.49365234 78.98388672 C60.12012404 80.23959761 57.74332966 81.47198383 55.33349609 82.65576172 C58.82319337 84.98222657 62.36169134 86.02742702 66.33349609 87.21826172 C67.77103361 87.65694087 69.20853501 88.09573843 70.64599609 88.53466797 C72.47130859 89.08960938 72.47130859 89.08960938 74.33349609 89.65576172 C75.32349609 89.98576172 76.31349609 90.31576172 77.33349609 90.65576172 C75.71740423 94.57922173 73.0203636 97.36993997 70.14599609 100.40576172 C69.14654403 101.47667298 68.14784578 102.54828824 67.14990234 103.62060547 C66.42311279 104.39960205 66.42311279 104.39960205 65.68164062 105.19433594 C63.93949795 107.08286655 62.25771918 109.0194508 60.58349609 110.96826172 C57.87819456 114.09224087 55.0148061 116.99535986 52.06787109 119.89013672 C50.3214719 121.66800256 48.7013037 123.51061567 47.08349609 125.40576172 C44.15070043 128.81414587 41.03277868 131.99976386 37.83349609 135.15576172 C34.04946244 138.88866842 30.45969963 142.71789553 27.00927734 146.76123047 C24.6394754 149.44037718 22.09327897 151.92217825 19.52099609 154.40576172 C17.62075726 156.3602931 15.83097363 158.35627032 14.04443359 160.41357422 C10.4501553 164.55168578 6.72474509 168.54946606 2.95849609 172.53076172 C-6.84737694 181.89143455 -6.84737694 181.89143455 -14.66650391 192.65576172 C-17.58471394 192.05315315 -19.69750866 191.17912931 -22.17822266 189.53857422 C-22.84499023 189.10198486 -23.51175781 188.66539551 -24.19873047 188.21557617 C-24.9099707 187.7420874 -25.62121094 187.26859863 -26.35400391 186.78076172 C-27.88388636 185.77675571 -29.4138362 184.77285237 -30.94384766 183.76904297 C-31.72614746 183.25293457 -32.50844727 182.73682617 -33.31445312 182.20507812 C-39.07497107 178.41057461 -44.87015217 174.6694668 -50.67382812 170.94140625 C-52.6166847 169.68790432 -54.54978628 168.42029492 -56.48291016 167.15185547 C-57.64776475 166.40236433 -58.81310073 165.65362064 -59.97900391 164.90576172 C-60.98576172 164.25091797 -61.99251953 163.59607422 -63.02978516 162.92138672 C-65.48039762 161.45148599 -65.48039762 161.45148599 -67.63037109 161.90551758 C-69.92067823 162.74941612 -71.1279942 163.70691474 -72.88134766 165.39404297 C-73.47874756 165.96106934 -74.07614746 166.5280957 -74.69165039 167.11230469 C-75.32272705 167.72477051 -75.95380371 168.33723633 -76.60400391 168.96826172 C-77.94732318 170.24866168 -79.29108123 171.52860145 -80.63525391 172.80810547 C-81.64652344 173.77659424 -81.64652344 173.77659424 -82.67822266 174.76464844 C-85.6171414 177.55994124 -88.61074316 180.29396476 -91.60400391 183.03076172 C-95.75002784 186.83719234 -99.7823733 190.73016207 -103.72485352 194.74707031 C-105.50604573 196.49802728 -107.33528218 198.11686486 -109.24072266 199.72998047 C-114.47539996 204.2791715 -119.30007637 209.21951457 -124.16650391 214.15576172 C-129.5242651 219.5903918 -134.87346446 224.92453835 -140.66992188 229.890625 C-144.60480313 233.36937181 -148.27575657 237.12160553 -151.97900391 240.84326172 C-152.77628906 241.63667969 -153.57357422 242.43009766 -154.39501953 243.24755859 C-155.16136719 244.01519531 -155.92771484 244.78283203 -156.71728516 245.57373047 C-157.4047583 246.26233154 -158.09223145 246.95093262 -158.80053711 247.66040039 C-160.7168752 249.62425281 -160.7168752 249.62425281 -162.28833008 251.91088867 C-162.74312744 252.48669678 -163.1979248 253.06250488 -163.66650391 253.65576172 C-164.32650391 253.65576172 -164.98650391 253.65576172 -165.66650391 253.65576172 C-166.28148652 251.95129215 -166.88259147 250.24181763 -167.47900391 248.53076172 C-167.81544922 247.57943359 -168.15189453 246.62810547 -168.49853516 245.64794922 C-172.32136219 233.17305126 -173.09033935 221.64590693 -173.00708008 208.71679688 C-173.006232 206.8526867 -173.00671248 204.98857554 -173.00840759 203.12446594 C-173.00926191 198.10677022 -172.99172834 193.08929336 -172.97068572 188.07164812 C-172.95182405 182.81196763 -172.95016104 177.55228112 -172.9466095 172.29257202 C-172.93731675 162.3517283 -172.91274077 152.41098455 -172.88256103 142.47018468 C-172.84893038 131.14481755 -172.83250929 119.81944543 -172.81747472 108.49404073 C-172.78618853 85.21455915 -172.73348237 61.93516606 -172.66650391 38.65576172 C-171.47618813 38.36223312 -171.47618813 38.36223312 -170.26182556 38.06277466 C-167.2663613 37.32279207 -164.27148379 36.58048814 -161.27696228 35.83670044 C-159.36406911 35.36228946 -157.45053533 34.89046386 -155.5369873 34.41870117 C-148.37172565 32.63706855 -141.27703897 30.73091462 -134.22900391 28.53076172 C-127.88115436 26.56914312 -121.54265003 24.86389664 -115.06494141 23.38623047 C-103.19376382 20.61576774 -91.46676955 17.37651987 -79.72900391 14.09326172 C-77.67896916 13.52325681 -75.62883916 12.95359438 -73.57861328 12.38427734 C-63.00437571 9.45234108 -63.00437571 9.45234108 -52.45410156 6.43579102 C-45.975097 4.55012363 -39.54146429 2.87427243 -32.91650391 1.59326172 C-27.89697208 0.61287278 -23.23256991 -0.41235058 -18.47900391 -2.34423828 C-12.19705081 -4.33028531 -6.0741013 -1.79471236 0 0 Z " fill="#FDFDFE" transform="translate(446.66650390625,102.34423828125)"/>
<path d="M0 0 C6.47151395 2.19886136 13.01106108 3.93180392 19.63671875 5.59765625 C27.43018357 7.58519427 35.21070885 9.59276922 42.94921875 11.78515625 C48.88239418 13.46149879 54.83597772 15.00557034 60.82421875 16.47265625 C69.18234991 18.52263887 77.47243529 20.78599692 85.76171875 23.09765625 C103.02938554 27.90456173 120.39467487 32.25498755 137.85546875 36.30078125 C140.49839974 36.92198298 143.13026594 37.56416367 145.76171875 38.23046875 C149.00822738 39.03533235 152.20620629 39.66432938 155.51171875 40.16015625 C155.51171875 40.82015625 155.51171875 41.48015625 155.51171875 42.16015625 C156.445 42.26457031 157.37828125 42.36898437 158.33984375 42.4765625 C164.38728114 43.34113332 170.20548728 45.22292705 176.06640625 46.90039062 C176.99195313 47.16013672 177.9175 47.41988281 178.87109375 47.6875 C179.69061523 47.92202881 180.51013672 48.15655762 181.35449219 48.39819336 C184.29857644 49.10871663 187.22888017 49.67253159 190.20904541 50.20777893 C191.20149387 50.38652841 192.19394234 50.56527788 193.216465 50.74944401 C193.97389874 50.88497905 194.73133247 51.02051409 195.51171875 51.16015625 C195.55856225 79.10801991 195.59376789 107.05587764 195.61534309 135.00377274 C195.62562973 147.9821835 195.63963979 160.96056979 195.66259766 173.93896484 C195.68261186 185.25872177 195.69545415 196.57846095 195.69989574 207.89823508 C195.70248958 213.88485903 195.70853107 219.87143226 195.72317886 225.85803986 C195.73689002 231.50834167 195.74091443 237.15857252 195.73793411 242.80888939 C195.73847829 244.86779098 195.74237425 246.92669529 195.7501297 248.98558235 C195.81365811 266.74210961 195.22664316 284.06955505 190.08691406 301.16748047 C189.21326854 304.19409114 188.46682732 307.25089375 187.70166016 310.30639648 C180.49642689 338.77127328 165.17758426 366.53583995 146.51171875 389.16015625 C145.1571528 390.88901015 143.80296745 392.61816234 142.44921875 394.34765625 C139.07180492 398.54899563 135.52174826 402.56696711 131.8828125 406.54296875 C130.57638852 407.98498534 129.27665791 409.43353517 128.00805664 410.90893555 C123.2649262 416.42505114 118.22940588 421.59203713 113.07421875 426.72265625 C112.26662109 427.53412109 111.45902344 428.34558594 110.62695312 429.18164062 C105.75195001 434.04878716 100.77051518 438.7109142 95.51171875 443.16015625 C94.86533447 443.70792725 94.2189502 444.25569824 93.55297852 444.82006836 C83.47088404 453.29997435 73.14053178 461.37973472 62.51171875 469.16015625 C61.79902832 469.68464355 61.08633789 470.20913086 60.35205078 470.74951172 C30.82123179 492.45586995 30.82123179 492.45586995 19.19140625 497.828125 C15.37149902 499.72694186 11.73930751 501.91801647 8.07421875 504.09765625 C6.60167004 504.96762996 5.12901562 505.83742479 3.65625 506.70703125 C1.1488234 508.18892667 -1.35322366 509.67851895 -3.8515625 511.17578125 C-4.80417969 511.7275 -5.75679687 512.27921875 -6.73828125 512.84765625 C-7.95257813 513.56501953 -7.95257813 513.56501953 -9.19140625 514.296875 C-12.2342148 515.44051563 -13.39098437 515.20133797 -16.48828125 514.16015625 C-19.55333773 512.756671 -22.51992404 511.19408119 -25.48828125 509.59765625 C-26.33696777 509.14511475 -27.1856543 508.69257324 -28.06005859 508.22631836 C-35.04929808 504.46547972 -41.81060819 500.45351188 -48.48828125 496.16015625 C-49.8254983 495.30855836 -51.16273925 494.45699801 -52.5 493.60546875 C-77.17124904 477.82764049 -101.24882133 460.86717894 -122.64453125 440.79296875 C-124.82038415 438.77851153 -127.01965384 436.83176636 -129.265625 434.8984375 C-133.8917752 430.86762422 -138.22456497 426.5708889 -142.55078125 422.22265625 C-143.69643555 421.08280273 -143.69643555 421.08280273 -144.86523438 419.91992188 C-149.61360196 415.16343048 -154.1241267 410.26992473 -158.48828125 405.16015625 C-159.37731171 404.13906821 -160.26661331 403.11821615 -161.15625 402.09765625 C-207.4258316 348.15234561 -221.61838986 290.19138945 -221.09664488 220.58996749 C-221.05843905 214.60708598 -221.05555871 208.62417427 -221.04849243 202.64118958 C-221.03004448 191.37643002 -220.9810869 180.11203123 -220.92039549 168.84742862 C-220.85269583 155.99559686 -220.82018384 143.14374538 -220.79022288 130.29177892 C-220.72796362 103.91437346 -220.62283051 77.53728531 -220.48828125 51.16015625 C-219.67560791 50.95334229 -218.86293457 50.74652832 -218.02563477 50.53344727 C-215.01889534 49.76652519 -212.01297041 48.9965101 -209.00756836 48.22436523 C-207.70515367 47.89043358 -206.40241913 47.55774693 -205.09936523 47.22631836 C-203.22947458 46.75048844 -201.36080995 46.26984865 -199.4921875 45.7890625 C-198.36627197 45.5010376 -197.24035645 45.2130127 -196.08032227 44.91625977 C-193.58021534 44.41235836 -193.58021534 44.41235836 -192.48828125 43.16015625 C-189.91461313 42.6546143 -187.32954296 42.26035339 -184.73828125 41.85546875 C-182.12697778 41.29680046 -179.80616632 40.61874499 -177.296875 39.74609375 C-172.12743022 37.97349769 -166.8848508 36.82352411 -161.55078125 35.66015625 C-149.25285927 32.8969172 -137.05701851 29.7845445 -124.86328125 26.59765625 C-123.97230743 26.36626953 -123.08133362 26.13488281 -122.1633606 25.89648438 C-112.0180286 23.25835475 -101.96590676 20.47170192 -91.99829102 17.22143555 C-87.24829609 15.7852369 -82.46696561 14.81903466 -77.6015625 13.84375 C-74.20597831 13.09817003 -71.02475683 12.0598545 -67.75878906 10.88647461 C-65.48526935 10.15919277 -63.27637064 9.68424914 -60.9296875 9.25390625 C-55.27457145 8.15663718 -49.73836082 6.71234992 -44.17578125 5.22265625 C-36.81318301 3.27078296 -29.46143904 1.39277627 -22.01171875 -0.19921875 C-19.43576475 -0.78649764 -19.43576475 -0.78649764 -16.90625 -1.92578125 C-11.28326784 -4.05143202 -5.44893952 -1.91740146 0 0 Z M-26.05078125 23.78515625 C-27.91235218 24.33731572 -29.77434638 24.88804976 -31.63671875 25.4375 C-32.59545898 25.72222168 -33.55419922 26.00694336 -34.54199219 26.30029297 C-40.28760241 27.97712751 -46.07188579 29.51341886 -51.85180664 31.06689453 C-57.03202416 32.46674181 -62.17356795 33.95211959 -67.29711914 35.54785156 C-70.32065176 36.39275628 -73.38095722 36.74186263 -76.48828125 37.16015625 C-78.49276354 37.81322224 -80.49231746 38.48150097 -82.48828125 39.16015625 C-84.52459138 39.75240384 -86.56524439 40.32986657 -88.609375 40.89453125 C-90.36568237 41.38010498 -90.36568237 41.38010498 -92.1574707 41.87548828 C-93.40101318 42.21692871 -94.64455566 42.55836914 -95.92578125 42.91015625 C-96.56832855 43.0868988 -97.21087585 43.26364136 -97.87289429 43.44573975 C-115.21401828 48.21337452 -132.61650698 52.71157244 -150.06933594 57.05126953 C-156.55422538 58.66664294 -163.01802187 60.33871171 -169.46875 62.0859375 C-172.79830342 62.98360691 -176.13656708 63.84515881 -179.4765625 64.703125 C-180.529646 64.97447266 -181.58272949 65.24582031 -182.66772461 65.52539062 C-184.77330515 66.06718872 -186.87957465 66.60631734 -188.98657227 67.14257812 C-190.42214478 67.51286133 -190.42214478 67.51286133 -191.88671875 67.890625 C-193.18101807 68.22163208 -193.18101807 68.22163208 -194.50146484 68.55932617 C-196.46927205 68.98376223 -196.46927205 68.98376223 -197.48828125 70.16015625 C-197.59269842 72.69729829 -197.6316078 75.20745571 -197.62872314 77.74533081 C-197.63169427 78.54948996 -197.63466539 79.3536491 -197.63772655 80.18217671 C-197.64645345 82.89864244 -197.64792524 85.6150643 -197.64941406 88.33154297 C-197.65403999 90.27128189 -197.65906434 92.2110199 -197.66445923 94.15075684 C-197.67762041 99.44106049 -197.6840372 104.73135143 -197.68846989 110.02166891 C-197.691399 113.33164866 -197.69550384 116.64162493 -197.69997406 119.95160294 C-197.71366835 130.32014128 -197.72332146 140.68867167 -197.72717595 151.05721843 C-197.73163998 162.99937548 -197.74910231 174.9414171 -197.77817655 186.88353908 C-197.79988654 196.12454644 -197.80988543 205.36552159 -197.81121707 214.60655415 C-197.81225988 220.11863646 -197.81805332 225.63061057 -197.83603668 231.14266586 C-197.85267537 236.34487232 -197.85459729 241.5468912 -197.84589767 246.74911499 C-197.84513525 248.64395784 -197.84936301 250.53881142 -197.85935593 252.43362808 C-197.94547315 269.80313773 -195.69369095 286.18437679 -190.98828125 302.91015625 C-190.69308594 304.00585938 -190.39789063 305.1015625 -190.09375 306.23046875 C-188.57439613 311.75904274 -186.88229677 316.95283435 -184.48828125 322.16015625 C-183.94259436 323.61699005 -183.40058496 325.07520981 -182.86328125 326.53515625 C-175.79353886 344.22295279 -165.0445641 360.14484996 -153.48828125 375.16015625 C-152.7303125 376.18625 -151.97234375 377.21234375 -151.19140625 378.26953125 C-145.51699793 385.87249665 -139.33670858 392.79414303 -132.78515625 399.65234375 C-130.54131226 402.00574786 -128.39713866 404.41285945 -126.30078125 406.8984375 C-124.25444452 409.3130339 -122.191392 411.45915163 -119.73828125 413.47265625 C-116.4934183 416.22831276 -113.47801629 419.12915186 -110.48828125 422.16015625 C-103.28212166 429.43222583 -95.52328123 435.83016897 -87.48828125 442.16015625 C-86.140625 443.23828125 -84.79296875 444.31640625 -83.4453125 445.39453125 C-74.18927255 452.75064184 -64.75422699 459.51044601 -54.72265625 465.76416016 C-52.32406177 467.26275754 -49.93673773 468.77824343 -47.55078125 470.296875 C-35.63930841 477.9256427 -35.63930841 477.9256427 -23.48828125 485.16015625 C-22.18117188 485.92005859 -22.18117188 485.92005859 -20.84765625 486.6953125 C-19.9659375 487.17871094 -19.08421875 487.66210938 -18.17578125 488.16015625 C-17.39589844 488.59328125 -16.61601562 489.02640625 -15.8125 489.47265625 C-12.15975439 490.55313226 -9.58295106 488.72424067 -6.31030273 487.0378418 C13.9015621 475.64162339 33.01781856 463.17289155 51.51171875 449.16015625 C52.14223145 448.68416992 52.77274414 448.20818359 53.42236328 447.71777344 C64.11643793 439.63050777 74.47707651 431.25836022 84.296875 422.12890625 C86.51171875 420.16015625 86.51171875 420.16015625 88.51171875 419.16015625 C88.51171875 418.50015625 88.51171875 417.84015625 88.51171875 417.16015625 C89.3776062 416.78105103 89.3776062 416.78105103 90.26098633 416.39428711 C92.78478395 415.01042802 94.48595201 413.44474747 96.5234375 411.4140625 C97.2767334 410.66487549 98.0300293 409.91568848 98.80615234 409.14379883 C99.59586426 408.34482178 100.38557617 407.54584473 101.19921875 406.72265625 C102.01213379 405.90369873 102.82504883 405.08474121 103.66259766 404.2409668 C109.34596513 398.46342824 114.55909856 392.57687219 119.51171875 386.16015625 C120.49325633 384.94171921 121.47785898 383.72574754 122.46484375 382.51171875 C128.09555497 375.57638367 133.5707569 368.61117195 138.51171875 361.16015625 C139.22972656 360.09410156 139.94773437 359.02804687 140.6875 357.9296875 C145.98848704 349.95355118 150.37535404 341.79519498 154.51171875 333.16015625 C155.17107636 331.86547837 155.83127173 330.5712269 156.4921875 329.27734375 C168.9028833 304.49152137 173.01942474 277.80434714 172.85229492 250.34667969 C172.85144592 248.35360731 172.85192911 246.360534 172.85362244 244.36746216 C172.85447316 239.02575662 172.83699932 233.68425867 172.81590056 228.34260082 C172.79697749 222.73461687 172.79537114 217.12662667 172.79182434 211.51861572 C172.78254933 200.92986232 172.75799793 190.34120332 172.72777587 179.75249124 C172.69408928 167.68455575 172.67771021 155.61661544 172.66268957 143.54864454 C172.63144366 118.75242972 172.57877285 93.9562983 172.51171875 69.16015625 C171.27461151 68.88831009 170.03750427 68.61646393 168.76290894 68.33638 C167.12431368 67.97472789 165.48573419 67.61300436 163.84716797 67.2512207 C162.62685127 66.98336132 162.62685127 66.98336132 161.38188171 66.71009064 C155.7306472 65.46031732 150.17542892 64.02967192 144.63671875 62.34765625 C136.59821194 59.985298 128.52017158 57.85797851 120.38671875 55.84765625 C110.05545182 53.29371394 99.7344948 50.70558416 89.42633057 48.05996704 C87.92633067 47.67520045 86.42613407 47.2911997 84.92572021 46.90805054 C76.59735183 44.78084517 68.31255895 42.55503307 60.05419922 40.16723633 C54.19329345 38.50105877 48.2999298 36.95869726 42.40686035 35.41116333 C38.70130995 34.43775258 34.99723486 33.45875321 31.29296875 32.48046875 C30.55226135 32.28495926 29.81155396 32.08944977 29.04840088 31.88801575 C21.94910319 30.01346509 14.85373257 28.12460541 7.76171875 26.22265625 C6.70436523 25.94059326 5.64701172 25.65853027 4.55761719 25.36791992 C0.73009621 24.33925004 -3.02870395 23.327825 -6.75390625 21.96875 C-13.59909098 19.94453109 -19.47761402 21.77001116 -26.05078125 23.78515625 Z " fill="#22448A" transform="translate(446.48828125,52.83984375)"/>
<path d="M0 0 C0.186839 28.56341088 0.32793473 57.12673024 0.41449738 85.69062901 C0.45575738 98.95322147 0.51201446 112.21543436 0.60351562 125.4777832 C0.68322539 137.03656816 0.73485929 148.59507824 0.75270796 160.1541304 C0.76314236 166.27536189 0.7876828 172.395807 0.84584045 178.51678658 C0.90013759 184.27812686 0.91689323 190.03835682 0.90486145 195.79992867 C0.90706254 197.9143375 0.92297948 200.02878342 0.9536438 202.14297104 C1.17452869 218.15754991 1.17452869 218.15754991 -1.76322937 222.76592827 C-3.77251641 224.54579175 -5.63083987 225.76515515 -8 227 C-9.89436335 228.87126136 -11.72622754 230.78007798 -13.5546875 232.71484375 C-15 234 -15 234 -17 234 C-17 174.6 -17 115.2 -17 54 C-20.6679081 56.93432648 -23.75063135 59.67506463 -27 63 C-28.30930594 64.33646997 -29.62206607 65.66956112 -30.9375 67 C-31.56527344 67.639375 -32.19304687 68.27875 -32.83984375 68.9375 C-35 71 -35 71 -38.09216785 73.17318439 C-40.68618014 75.34101501 -40.9680213 75.85110356 -41.72317791 79.36719799 C-41.71073449 80.66223405 -41.69829107 81.95727011 -41.68547058 83.29154968 C-41.6876439 84.37768286 -41.6876439 84.37768286 -41.68986112 85.48575813 C-41.68770009 87.90780334 -41.64286136 90.32716962 -41.59838867 92.7487793 C-41.58854822 94.4869506 -41.58150785 96.22513967 -41.57705688 97.96333313 C-41.56236104 101.70518039 -41.52959584 105.44628321 -41.48335838 109.18787193 C-41.41206397 115.10973116 -41.39177774 121.03108565 -41.38044739 126.95332336 C-41.34017634 143.79285362 -41.22656976 160.63160866 -41.07250977 177.47045898 C-40.98786552 186.7719159 -40.94304349 196.07275194 -40.94001561 205.37460071 C-40.93564571 211.25643958 -40.88168691 217.13504592 -40.79035318 223.01614511 C-40.74491272 226.68469043 -40.74570988 230.3521758 -40.75917435 234.02093315 C-40.75620014 235.71490471 -40.73449788 237.40896933 -40.69211388 239.10241318 C-40.3724756 252.50421027 -40.3724756 252.50421027 -44.46224403 257.29447365 C-51.19593457 264 -51.19593457 264 -55 264 C-57.78212325 244.91796628 -58.41553862 226.12388648 -58.30418181 206.89175558 C-58.28504319 203.00948893 -58.28363605 199.12721012 -58.28010559 195.24490356 C-58.27089166 187.93938868 -58.24642722 180.63401331 -58.21605712 173.32855904 C-58.18217499 164.99197981 -58.16594338 156.65539286 -58.15097082 148.31876159 C-58.11986406 131.21242789 -58.06731828 114.10622883 -58 97 C-58.4801783 97.42441879 -58.9603566 97.84883759 -59.45508575 98.28611755 C-62.98578541 101.39303513 -66.5373114 104.43238243 -70.21862793 107.35961914 C-77.31675996 113.31616802 -82.66978863 118.58009543 -83.75926971 128.09172058 C-84.02228121 133.2207478 -83.93333727 138.30642929 -83.78125 143.4375 C-83.77382842 145.65664454 -83.77350539 147.87582299 -83.77990723 150.0949707 C-83.77784728 155.88389199 -83.68060487 161.6672799 -83.56219482 167.45483398 C-83.45822808 173.38104023 -83.44608836 179.30739618 -83.42578125 185.234375 C-83.37275291 196.82530897 -83.21048119 208.4108551 -83 220 C-89.27 220.33 -95.54 220.66 -102 221 C-101.97268799 218.10347656 -101.94537598 215.20695313 -101.91723633 212.22265625 C-101.83491676 202.6393006 -101.81324868 193.05649342 -101.82121754 183.47280884 C-101.8241931 177.6633783 -101.80691243 171.85549619 -101.74291992 166.04638672 C-101.68188129 160.43714452 -101.67460025 154.8301433 -101.70416832 149.22067261 C-101.70606796 147.08365954 -101.68878387 144.94653837 -101.65177345 142.80984497 C-101.04911788 131.39943739 -101.04911788 131.39943739 -105.07846069 121.1796875 C-107.94086242 119.05970265 -110.80507792 117.57002705 -114 116 C-116.44876364 114.40659216 -118.81336449 112.70189355 -121.1875 111 C-122.30415841 110.22651633 -123.4224903 109.45543946 -124.54296875 108.6875 C-125.35378906 108.130625 -126.16460937 107.57375 -127 107 C-126.99723462 107.67807205 -126.99446924 108.3561441 -126.99162006 109.05476379 C-126.92529524 125.57270343 -126.87568785 142.09060074 -126.84456348 158.60864258 C-126.82911095 166.59672841 -126.80805239 174.58472522 -126.77368164 182.57275391 C-126.74372975 189.53713956 -126.72441327 196.50146073 -126.71773452 203.465909 C-126.71383203 207.15172118 -126.70469457 210.83734889 -126.68280983 214.52310181 C-126.6585464 218.64308774 -126.65803371 222.7627553 -126.65942383 226.8828125 C-126.648638 228.09769852 -126.63785217 229.31258453 -126.6267395 230.56428528 C-126.65080633 237.15921405 -127.32718046 241.97258338 -130 248 C-130.55871445 251.57340205 -130.55871445 251.57340205 -130.6875 255 C-130.75324219 256.134375 -130.81898438 257.26875 -130.88671875 258.4375 C-130.94279297 259.7059375 -130.94279297 259.7059375 -131 261 C-140.52705208 256.35210258 -140.52705208 256.35210258 -144 252 C-145.30983593 246.94089569 -145.14075513 241.97239818 -145.02172852 236.79321289 C-145.01918754 235.24540353 -145.02061937 233.69758334 -145.02571106 232.14978027 C-145.02828729 227.96135399 -144.97548266 223.77526027 -144.91254544 219.58737493 C-144.856177 215.20594911 -144.85098864 210.82446623 -144.84031677 206.44273376 C-144.81237424 198.15157465 -144.73856246 189.86148711 -144.64817137 181.57079929 C-144.54747735 172.12961407 -144.49806643 162.6883769 -144.45291245 153.24678814 C-144.35890892 133.83058519 -144.20066771 114.41537883 -144 95 C-144.67542343 95.54092789 -145.35084686 96.08185577 -146.04673767 96.63917542 C-146.93873367 97.35323044 -147.83072968 98.06728546 -148.74975586 98.80297852 C-149.63142929 99.5089064 -150.51310272 100.21483429 -151.42149353 100.94215393 C-155.4017017 104.11866554 -159.411912 107.25629532 -163.42382812 110.39257812 C-166.30739825 112.58583927 -166.30739825 112.58583927 -169 115 C-169.10787538 116.50508199 -169.14682432 118.01516316 -169.15821838 119.52406311 C-169.1680072 120.50147964 -169.17779602 121.47889618 -169.18788147 122.4859314 C-169.19363693 123.56702179 -169.1993924 124.64811218 -169.20532227 125.76196289 C-169.21522186 126.8935231 -169.22512146 128.02508331 -169.23532104 129.19093323 C-169.26704594 132.95148589 -169.29173675 136.71205121 -169.31640625 140.47265625 C-169.3369663 143.07197915 -169.3579625 145.67129864 -169.37937927 148.27061462 C-169.42903619 154.42585414 -169.47427596 160.58111178 -169.51740164 166.73640007 C-169.56673197 173.74236709 -169.62166564 180.74828661 -169.67708123 187.75420773 C-169.79097692 202.16942723 -169.89779936 216.58469308 -170 231 C-170.44866708 230.61058196 -170.89733416 230.22116392 -171.35959721 229.81994534 C-174.0652579 227.48396814 -176.74210128 225.19003403 -179.6214447 223.06837463 C-183.62731037 219.81618535 -185.71932906 217.36160399 -186.77713013 212.22994995 C-187.15535072 207.57667752 -187.01379585 202.93861377 -186.87890625 198.27734375 C-186.86209525 196.56388204 -186.84929585 194.85037672 -186.84031677 193.13685608 C-186.80614621 188.65257827 -186.71791729 184.17097403 -186.61798096 179.68774414 C-186.52548728 175.10274416 -186.48471874 170.517307 -186.43945312 165.93164062 C-186.34327349 156.95325996 -186.18991365 147.9768533 -186 139 C-187.30868042 140.01211548 -187.30868042 140.01211548 -188.64379883 141.04467773 C-189.81066847 141.94520308 -190.9775816 142.84567208 -192.14453125 143.74609375 C-192.71691528 144.18900757 -193.28929932 144.63192139 -193.87902832 145.08825684 C-206.24514593 154.62257296 -206.24514593 154.62257296 -211 157 C-211.33 167.23 -211.66 177.46 -212 188 C-223.0144166 176.9855834 -229.80747467 162.3480265 -236.69824219 148.55908203 C-237.53574024 146.9126727 -238.40411478 145.28142304 -239.30957031 143.67138672 C-240.4765625 141.55859375 -240.4765625 141.55859375 -242 138 C-240.49845422 133.70886449 -237.32484984 131.86532734 -233.6875 129.4375 C-228.72028657 126.01280788 -223.99916008 122.44933795 -219.4375 118.5 C-215.24484725 114.87347596 -210.98793213 111.40130064 -206.5625 108.0625 C-201.2952539 104.07911536 -196.28175904 99.86108067 -191.29882812 95.52929688 C-187.31174532 92.07969927 -183.23371376 88.78616428 -179.0625 85.5625 C-170.5162072 78.94488618 -162.39233384 71.83642313 -154.34765625 64.62109375 C-153.63480469 63.98300781 -152.92195313 63.34492188 -152.1875 62.6875 C-151.60355469 62.15511719 -151.01960938 61.62273437 -150.41796875 61.07421875 C-149 60 -149 60 -147 60 C-146.67 59.01 -146.34 58.02 -146 57 C-145.01 57 -144.02 57 -143 57 C-143 57.66 -143 58.32 -143 59 C-142.43410156 59.27199219 -141.86820312 59.54398437 -141.28515625 59.82421875 C-128.46581225 66.42015472 -116.44651663 75.57402327 -104.8046875 84.02734375 C-104.16829346 84.48906982 -103.53189941 84.9507959 -102.8762207 85.42651367 C-101.70111347 86.2839987 -100.53008413 87.14711168 -99.36401367 88.0168457 C-96.64023927 90.00945073 -94.37885613 91.51149068 -91 92 C-90.5875 91.50371094 -90.175 91.00742187 -89.75 90.49609375 C-86.08787671 86.18819426 -82.28784603 82.38394265 -77.984375 78.72265625 C-73.8626735 75.14456499 -70.06391205 71.35145585 -66.6875 67.0625 C-66.130625 66.381875 -65.57375 65.70125 -65 65 C-64.34 65 -63.68 65 -63 65 C-62.74244431 64.41679993 -62.48488861 63.83359985 -62.2195282 63.23272705 C-60.89414842 60.80620565 -59.45160702 59.21724072 -57.48754883 57.27636719 C-56.76952591 56.56172302 -56.05150299 55.84707886 -55.3117218 55.11077881 C-54.53467392 54.34719055 -53.75762604 53.58360229 -52.95703125 52.796875 C-52.1552092 52.00025452 -51.35338715 51.20363403 -50.52726746 50.38287354 C-47.96037582 47.8337925 -45.38692442 45.2914714 -42.8125 42.75 C-40.25675608 40.22200181 -37.7025261 37.69252167 -35.15129089 35.15997314 C-33.5646798 33.58547555 -31.97540406 32.01365686 -30.38301086 30.44500732 C-25.69999759 25.8036744 -21.28329927 21.0111154 -17 16 C-2.83569405 0 -2.83569405 0 0 0 Z " fill="#FAFBFC" transform="translate(525,225)"/>
<path d="M0 0 C8.37002197 2.56629626 16.71205481 4.99661235 25.25 6.9375 C31.81620227 8.43735623 38.28928084 10.09630817 44.75 12 C55.16610502 15.05793909 65.67082044 17.75151427 76.1875 20.4375 C77.01666931 20.64941986 77.84583862 20.86133972 78.70013428 21.0796814 C89.12150665 23.74099092 89.12150665 23.74099092 99.55639648 26.34863281 C108.31453979 28.51382533 117.02223461 30.82548473 125.71682739 33.23287964 C136.44596244 36.20033988 147.1717666 39.116985 158.03515625 41.55859375 C160.56198302 42.12897687 163.07205966 42.72834287 165.58374023 43.35961914 C166.83485596 43.67406982 168.08597168 43.98852051 169.375 44.3125 C169.44528821 70.30459444 169.49808483 96.2966745 169.53043652 122.28884506 C169.54586167 134.35926249 169.56686736 146.42962064 169.60131836 158.5 C169.63135461 169.02869149 169.65060657 179.55734001 169.65726548 190.08607316 C169.66115378 195.65354375 169.67019964 201.22089149 169.69219017 206.78832245 C169.71278083 212.04467829 169.71878892 217.30086244 169.71432304 222.55725479 C169.71513827 224.47103183 169.72096783 226.38481552 169.73261642 228.29855728 C169.91880669 260.50865517 162.20175047 291.69123037 145.375 319.3125 C144.38574891 321.16130601 143.40605481 323.01526804 142.4375 324.875 C136.32144782 336.13447073 128.29557629 346.27977004 120.375 356.3125 C119.64539063 357.23804688 118.91578125 358.16359375 118.1640625 359.1171875 C110.25615822 368.96638237 101.6101557 378.13290458 92.75 387.125 C92.24106201 387.64698975 91.73212402 388.16897949 91.20776367 388.70678711 C89.96891713 389.9485858 88.67626694 391.13627336 87.375 392.3125 C86.715 392.3125 86.055 392.3125 85.375 392.3125 C85.375 392.9725 85.375 393.6325 85.375 394.3125 C84.046875 395.6875 84.046875 395.6875 82.125 397.3125 C81.38636719 397.93898438 80.64773438 398.56546875 79.88671875 399.2109375 C79.05785156 399.90445312 78.22898437 400.59796875 77.375 401.3125 C76.51519531 402.04726563 75.65539062 402.78203125 74.76953125 403.5390625 C66.90356305 410.20072385 58.75800589 416.46716902 50.53320312 422.67773438 C48.45761768 424.24991991 46.39188433 425.83421264 44.328125 427.421875 C33.48656624 435.71923147 22.22988777 443.24422707 10.49609375 450.22265625 C7.04994744 452.2755673 3.68130721 454.40992507 0.33984375 456.62890625 C-1.3359375 457.7109375 -3.01171875 458.79296875 -4.6875 459.875 C-5.52087891 460.44541016 -6.35425781 461.01582031 -7.21289062 461.60351562 C-13.24414591 465.41939932 -13.24414591 465.41939932 -16.99023438 465.12939453 C-19.36511251 464.39318231 -21.43018895 463.47794695 -23.625 462.3125 C-24.26284424 461.98258057 -24.90068848 461.65266113 -25.55786133 461.31274414 C-27.41489982 460.28778895 -29.20647647 459.19457708 -31 458.0625 C-31.64646484 457.66409912 -32.29292969 457.26569824 -32.95898438 456.85522461 C-34.85370816 455.68369755 -36.74009128 454.49973429 -38.625 453.3125 C-40.05199219 452.42498047 -40.05199219 452.42498047 -41.5078125 451.51953125 C-49.31816808 446.6118302 -56.97979528 441.47240898 -64.625 436.3125 C-65.19541016 435.92803711 -65.76582031 435.54357422 -66.35351562 435.14746094 C-86.73729296 421.36266204 -105.62482734 405.60277026 -122.86328125 388.0390625 C-124.57273177 386.36372518 -126.34244524 384.83579025 -128.1875 383.3125 C-131.35831018 380.64873379 -134.00793685 377.72092792 -136.68359375 374.56640625 C-138.89202372 372.00249459 -141.19432507 369.53922964 -143.5 367.0625 C-148.62988709 361.42892309 -153.16630413 355.48431401 -157.625 349.3125 C-158.43581652 348.20935499 -159.24702296 347.10649647 -160.05859375 346.00390625 C-170.17502525 332.16662509 -178.73217686 318.02276572 -185.625 302.3125 C-186.40423828 300.55873047 -186.40423828 300.55873047 -187.19921875 298.76953125 C-191.05487109 289.42089476 -193.65330515 279.49838922 -196.3125 269.75 C-196.51472168 269.03231445 -196.71694336 268.31462891 -196.92529297 267.57519531 C-200.64776948 253.58413873 -200.91036705 239.6190949 -200.85205078 225.25024414 C-200.85148537 223.27761338 -200.85180576 221.3049822 -200.85293579 219.33235168 C-200.85350524 214.02345421 -200.8418176 208.71464871 -200.82778788 203.40577245 C-200.8152119 197.84046102 -200.81410464 192.27514705 -200.81173706 186.70982361 C-200.80554235 176.19176072 -200.78915895 165.67373984 -200.76903808 155.15569538 C-200.74661625 143.17251007 -200.7356699 131.18932266 -200.72564721 119.20612156 C-200.70479078 94.57489117 -200.6696542 69.94369795 -200.625 45.3125 C-196.71022998 43.70340955 -192.88582613 42.54765094 -188.76953125 41.54296875 C-187.78774147 41.30116379 -187.78774147 41.30116379 -186.78611755 41.05447388 C-185.39141163 40.71105222 -183.996346 40.3690886 -182.60095215 40.0284729 C-178.9622847 39.13964476 -175.326621 38.2387697 -171.69140625 37.3359375 C-170.98055878 37.15942154 -170.2697113 36.98290558 -169.537323 36.80104065 C-163.59831007 35.31952142 -157.70237789 33.71633157 -151.81665039 32.03808594 C-145.5962239 30.27425144 -139.33181671 28.70765591 -133.04785156 27.18676758 C-128.34339446 26.03646923 -123.6874849 24.76852348 -119.03515625 23.421875 C-113.87920654 21.93464887 -108.71089733 20.53251841 -103.51171875 19.20703125 C-102.83732758 19.03505722 -102.1629364 18.86308319 -101.46810913 18.68589783 C-98.70479409 17.98315769 -95.94072887 17.28343916 -93.17602539 16.58618164 C-91.12049022 16.06693076 -89.06605642 15.54349635 -87.01171875 15.01953125 C-85.80733154 14.7150708 -84.60294434 14.41061035 -83.36206055 14.09692383 C-80.73397073 13.58311484 -80.73397073 13.58311484 -79.625 12.3125 C-77.71529125 11.88435562 -75.79641435 11.49710489 -73.875 11.125 C-66.82102381 9.65571881 -59.95638798 7.74760448 -53.04272461 5.72705078 C-45.03975406 3.39935883 -36.98860247 1.28692846 -28.91235352 -0.77075195 C-27.98865967 -1.00753662 -27.06496582 -1.24432129 -26.11328125 -1.48828125 C-25.29384033 -1.69622314 -24.47439941 -1.90416504 -23.63012695 -2.1184082 C-14.70007704 -4.65292012 -8.92699781 -2.81687461 0 0 Z M-30.9375 15 C-38.87225962 17.53665709 -46.81593422 19.65865621 -54.94262695 21.48706055 C-61.0132069 22.86915513 -66.97701939 24.52853925 -72.95703125 26.25976562 C-79.01373121 27.99808367 -85.0993469 29.62588169 -91.1875 31.25 C-91.83463959 31.42302643 -92.48177917 31.59605286 -93.14852905 31.77432251 C-101.38363116 33.97318579 -109.63346262 36.07476666 -117.9375 38 C-124.54341084 39.53313384 -131.04157977 41.2504831 -137.52905273 43.22290039 C-148.56467701 46.54731645 -159.74870481 49.37922767 -170.89208984 52.31689453 C-174.05046185 53.15926478 -177.20494188 54.01387619 -180.35830688 54.87472534 C-181.3455607 55.14417906 -182.33281452 55.41363277 -183.34998512 55.69125175 C-184.47611749 55.99876964 -184.47611749 55.99876964 -185.625 56.3125 C-185.69525152 81.18295143 -185.74806702 106.05338787 -185.78043652 130.92391872 C-185.79586937 142.4731574 -185.81689004 154.02233424 -185.85131836 165.5715332 C-185.88133076 175.64423433 -185.90060099 185.71689064 -185.90726548 195.78963524 C-185.91115777 201.11723862 -185.92022962 206.44471384 -185.94219017 211.77227592 C-185.96274287 216.79962803 -185.96879633 221.8268007 -185.96432304 226.85419083 C-185.96513993 228.68698798 -185.97099259 230.51979193 -185.98261642 232.35255241 C-186.08827131 249.89029749 -183.38510965 265.73925038 -177.625 282.3125 C-177.25632812 283.37597656 -176.88765625 284.43945312 -176.5078125 285.53515625 C-168.43152287 307.56393244 -156.98677186 326.88190237 -142.625 345.3125 C-141.9134375 346.23933594 -141.201875 347.16617187 -140.46875 348.12109375 C-132.28495438 358.60238937 -122.99983249 368.04180083 -113.64627075 377.46646118 C-112.6483747 378.47240463 -111.651963 379.47982319 -110.65719604 380.48886108 C-103.99725398 387.23406617 -97.04124454 393.39691409 -89.625 399.3125 C-88.48862834 400.27138899 -87.35729869 401.23633449 -86.234375 402.2109375 C-66.6413232 419.18087581 -44.64798 432.75777402 -22.625 446.3125 C-21.79564941 446.89459229 -20.96629883 447.47668457 -20.11181641 448.07641602 C-17.71319944 449.52319183 -17.71319944 449.52319183 -15.12280273 449.17822266 C-12.36001278 448.2206571 -10.13636759 447.01792937 -7.66015625 445.4609375 C-6.7060083 444.86434326 -5.75186035 444.26774902 -4.76879883 443.65307617 C-3.75197021 443.00443604 -2.7351416 442.3557959 -1.6875 441.6875 C-0.63006592 441.01887939 0.42736816 440.35025879 1.5168457 439.66137695 C16.91874406 429.86079422 32.13978262 419.76040209 46.375 408.3125 C47.26574219 407.60222656 48.15648437 406.89195312 49.07421875 406.16015625 C65.62560325 392.79823562 82.40339368 378.76061805 96.34765625 362.6484375 C98.58197241 360.07402311 100.91553568 357.60878263 103.25 355.125 C108.7234292 349.11529391 113.46065119 342.64346271 118.16015625 336.01953125 C119.20897046 334.54579553 120.27480247 333.08419821 121.34375 331.625 C136.18181088 311.12149769 146.29301279 287.77962475 152.375 263.3125 C152.5694873 262.56323242 152.76397461 261.81396484 152.96435547 261.04199219 C155.93665227 248.88532556 155.51552494 236.30238607 155.48852539 223.87597656 C155.48824281 222.04171755 155.48840263 220.20745841 155.4889679 218.37319946 C155.48925312 213.42777674 155.48340098 208.4823786 155.47639394 203.53696156 C155.47011448 198.35600219 155.46955298 193.17504217 155.46836853 187.99407959 C155.4652687 178.19841727 155.45707358 168.40276621 155.44701904 158.60710883 C155.43581591 147.44864051 155.43033689 136.29017164 155.42532361 125.13169909 C155.41488977 102.19195984 155.39731657 79.25223055 155.375 56.3125 C154.22612305 56.04767822 153.07724609 55.78285645 151.89355469 55.51000977 C150.36129976 55.15393062 148.82907479 54.79772258 147.296875 54.44140625 C146.16548096 54.18115662 146.16548096 54.18115662 145.01123047 53.91564941 C140.48734843 52.8604845 136.05415951 51.6619879 131.625 50.25 C127.54840871 48.95101837 123.50477416 47.83439426 119.328125 46.90625 C112.47708031 45.35127519 105.67474734 43.6394914 98.875 41.875 C97.75480469 41.58818359 96.63460938 41.30136719 95.48046875 41.00585938 C86.62635409 38.71318493 77.85854782 36.17870166 69.19848633 33.23144531 C65.99926933 32.1902129 62.88386255 31.66116795 59.5625 31.125 C51.51538781 29.71026881 43.74032564 27.54810419 35.89282227 25.2956543 C24.79085037 22.11477554 13.62908265 19.1776243 2.45947266 16.24560547 C1.74549316 16.0578656 1.03151367 15.87012573 0.29589844 15.67669678 C-1.65579748 15.16373187 -3.60791479 14.65237106 -5.56005859 14.14111328 C-7.59841823 13.59003851 -9.62181901 12.980227 -11.625 12.3125 C-18.56956013 11.69277341 -24.39285326 12.78634982 -30.9375 15 Z " fill="#F6F8F9" transform="translate(449.625,77.6875)"/>
<path d="M0 0 C1.11955078 -0.00471313 1.11955078 -0.00471313 2.26171875 -0.00952148 C8.75363772 0.13041481 14.99691459 1.68441459 19.75 6.4375 C20.08 4.7875 20.41 3.1375 20.75 1.4375 C27.68 1.4375 34.61 1.4375 41.75 1.4375 C41.84064505 10.27853017 41.91391327 19.11924785 41.95724869 27.960639 C41.97805557 32.06679086 42.00624539 36.17260621 42.05175781 40.27856445 C42.09546408 44.24675837 42.1191889 48.21463016 42.12950897 52.18304634 C42.1368562 53.69121936 42.15120301 55.19937627 42.17292023 56.70741081 C42.33406295 68.36900356 40.93202384 76.92325055 32.79296875 85.65234375 C29.17352101 88.81503518 25.18649672 90.66826264 20.75 92.4375 C19.97914063 92.7571875 19.20828125 93.076875 18.4140625 93.40625 C7.75378625 97.23119962 -7.54499093 97.26416653 -18.02832031 92.65576172 C-21.8778202 90.76749992 -25.57829953 88.65236448 -29.25 86.4375 C-27.4375 81.6796875 -27.4375 81.6796875 -25.75 79.5 C-23.90299252 76.96036471 -23.13476994 74.43210595 -22.25 71.4375 C-20.24278288 72.43885326 -18.24310222 73.44122779 -16.26953125 74.5078125 C-10.68364139 77.1771758 -5.66594584 77.83666758 0.4375 77.875 C1.14994873 77.8848291 1.86239746 77.8946582 2.59643555 77.90478516 C7.65000419 77.8238154 11.27865915 76.82668088 15.75 74.4375 C19.44407202 69.4796665 20.32138506 65.54526294 20.75 59.4375 C19.95335937 59.93121094 19.15671875 60.42492187 18.3359375 60.93359375 C17.27632812 61.57425781 16.21671875 62.21492187 15.125 62.875 C14.08085938 63.51308594 13.03671875 64.15117188 11.9609375 64.80859375 C5.87708356 67.89492841 -1.73658769 68.55557664 -8.39453125 66.90625 C-17.22551479 63.79936478 -24.03128501 58.24251384 -28.58203125 50.03515625 C-32.39949241 41.064797 -32.82506244 29.91280095 -30.1875 20.5 C-27.14253895 13.02340549 -21.45741355 6.1841513 -14.25 2.4375 C-9.5154086 0.50529338 -5.06784746 0.01756521 0 0 Z " fill="#214184" transform="translate(663.25,617.5625)"/>
<path d="M0 0 C1.29357422 0.74636719 1.29357422 0.74636719 2.61328125 1.5078125 C10.26009732 6.37911755 16.38179403 13.5271761 18.625 22.5 C19.91156262 34.50791777 18.75667272 44.3041591 11 54 C2.44029695 62.87820363 -6.89343734 67.02232958 -19.1875 67.3125 C-29.06849355 67.21121419 -37.91574882 64.01211013 -45 57 C-53.51049814 46.99298443 -56.0936234 38.0757425 -55.23828125 24.99511719 C-54.32349971 17.33569632 -50.67774908 10.61728125 -44.953125 5.52734375 C-32.1135596 -4.51319639 -14.91354885 -8.67604047 0 0 Z " fill="#224184" transform="translate(212,621)"/>
<path d="M0 0 C2.12542096 1.3905855 4.15601363 2.82024892 6.14453125 4.3984375 C5.47052407 8.30957776 3.60197092 11.26962932 1.58203125 14.6484375 C0.94136719 15.72609375 0.30070312 16.80375 -0.359375 17.9140625 C-0.85308594 18.73390625 -1.34679687 19.55375 -1.85546875 20.3984375 C-6.40642324 18.62265671 -10.81030919 16.58736784 -15.234375 14.51953125 C-21.70632378 11.75135048 -28.66245957 11.17928854 -35.29296875 13.7109375 C-38.43348919 15.69291888 -38.43348919 15.69291888 -40.85546875 18.3984375 C-41.41841488 21.53485164 -41.20973584 22.87473833 -39.41796875 25.5234375 C-35.32731079 28.51660186 -30.7331065 29.5781253 -25.92333984 30.94921875 C1.67708164 38.83687089 1.67708164 38.83687089 8.14453125 48.3359375 C10.43978351 55.17609323 10.49246977 63.62618464 8.078125 70.3828125 C3.08376767 79.36449053 -4.52269116 84.04335427 -14.015625 87.48828125 C-25.63630026 90.24272411 -39.64615547 89.62914037 -50.54296875 84.4609375 C-51.65671875 83.93693359 -51.65671875 83.93693359 -52.79296875 83.40234375 C-53.47359375 83.07105469 -54.15421875 82.73976563 -54.85546875 82.3984375 C-55.90734375 81.9034375 -56.95921875 81.4084375 -58.04296875 80.8984375 C-61.14426316 79.24441382 -63.96456191 77.39453984 -66.85546875 75.3984375 C-66.21219447 71.38284652 -64.19449453 68.50597109 -61.98046875 65.1484375 C-61.28179687 64.07078125 -60.583125 62.993125 -59.86328125 61.8828125 C-59.20070313 61.06296875 -58.538125 60.243125 -57.85546875 59.3984375 C-56.86546875 59.3984375 -55.87546875 59.3984375 -54.85546875 59.3984375 C-54.85546875 60.0584375 -54.85546875 60.7184375 -54.85546875 61.3984375 C-53.80166016 61.81416016 -53.80166016 61.81416016 -52.7265625 62.23828125 C-50.79255064 63.01977992 -48.86799793 63.82505679 -46.953125 64.65234375 C-45.95152344 65.08417969 -44.94992187 65.51601563 -43.91796875 65.9609375 C-42.91894531 66.39535156 -41.91992188 66.82976562 -40.890625 67.27734375 C-34.25303283 69.72906698 -25.42214419 71.08594804 -18.625 68.57421875 C-16.07516536 67.15998057 -14.1822938 66.0520876 -12.85546875 63.3984375 C-12.81547675 61.39883738 -12.81200076 59.39796508 -12.85546875 57.3984375 C-18.8271606 54.16261377 -24.54879317 52.22022819 -31.10546875 50.5234375 C-42.38849773 47.42835454 -52.8957454 44.45902769 -59.85546875 34.3984375 C-60.39042969 33.80546875 -60.92539062 33.2125 -61.4765625 32.6015625 C-64.44574179 27.85760465 -63.4471536 21.75840618 -62.85546875 16.3984375 C-60.57784627 7.97813622 -54.99369993 3.03828777 -47.85546875 -1.6015625 C-34.08912712 -9.11047612 -13.3928117 -7.51170013 0 0 Z " fill="#214184" transform="translate(333.85546875,599.6015625)"/>
<path d="M0 0 C-1.69476842 3.52648783 -3.64502684 6.8767124 -5.625 10.25 C-6.57246094 11.86648438 -6.57246094 11.86648438 -7.5390625 13.515625 C-8.02117187 14.33546875 -8.50328125 15.1553125 -9 16 C-9.96421875 15.57847656 -10.9284375 15.15695312 -11.921875 14.72265625 C-13.19784676 14.16910968 -14.47389233 13.61573319 -15.75 13.0625 C-16.38421875 12.78470703 -17.0184375 12.50691406 -17.671875 12.22070312 C-26.86052843 8.24852482 -34.7943937 7.79339103 -44.28515625 11.24609375 C-45.99500623 11.87409594 -45.99500623 11.87409594 -47 13 C-47.41319366 17.04801273 -47.41319366 17.04801273 -47 21 C-44.03791475 23.67979719 -41.24962444 24.7045924 -37.421875 25.71875 C-35.80345703 26.15767578 -35.80345703 26.15767578 -34.15234375 26.60546875 C-33.02957031 26.90066406 -31.90679687 27.19585938 -30.75 27.5 C-4.37581023 34.53107038 -4.37581023 34.53107038 1.5625 44.75 C4.00653469 50.61115726 4.14640184 56.7346341 2.046875 62.71484375 C-2.88607938 73.09590282 -8.42348612 77.62169251 -19 82 C-33.78667017 87.04364885 -49.04998888 84.07547813 -62.890625 77.66015625 C-66.4282198 75.78294869 -69.24956383 73.92815666 -72 71 C-70.58399311 64.86397012 -66.9336625 60.73301638 -63 56 C-60.87841774 57.05347533 -58.76737284 58.121574 -56.66796875 59.21875 C-55.84941406 59.6415625 -55.03085938 60.064375 -54.1875 60.5 C-53.37667969 60.9228125 -52.56585938 61.345625 -51.73046875 61.78125 C-45.94604982 64.36313656 -40.75528668 65.27591912 -34.4375 65.25 C-33.17808594 65.25515625 -31.91867188 65.2603125 -30.62109375 65.265625 C-27.04907891 65.00360018 -24.29492065 64.3798401 -21 63 C-19.3212393 60.78708817 -19.02871784 59.16820449 -18.5625 56.4375 C-18.7446203 53.85883566 -18.7446203 53.85883566 -20.8984375 52.52734375 C-25.14181859 50.43771906 -29.50228361 49.33332443 -34.0625 48.125 C-60.009125 40.93964362 -60.009125 40.93964362 -66.375 30.375 C-69.43921829 24.01085433 -69.51748912 18.00021642 -69 11 C-66.40146314 3.61468471 -60.80326168 -2.25382092 -54 -6 C-35.7333733 -14.45830226 -16.82822722 -9.40124425 0 0 Z " fill="#234283" transform="translate(151,604)"/>
<path d="M0 0 C5.52836632 4.69556754 9.32588995 8.87638566 10.5 16.1953125 C10.58218725 17.8516655 10.61790108 19.51080444 10.61352539 21.16918945 C10.61344986 22.12980789 10.61337433 23.09042633 10.61329651 24.08015442 C10.60813522 25.1042894 10.60297394 26.12842438 10.59765625 27.18359375 C10.5962413 28.24192917 10.59482635 29.30026459 10.59336853 30.39067078 C10.58778159 33.76308039 10.57523144 37.13542304 10.5625 40.5078125 C10.55748331 42.79752508 10.5529207 45.08723871 10.54882812 47.37695312 C10.53781643 52.98309862 10.52056072 58.58919422 10.5 64.1953125 C3.9 64.1953125 -2.7 64.1953125 -9.5 64.1953125 C-9.5 62.5453125 -9.5 60.8953125 -9.5 59.1953125 C-10.06847656 59.53304687 -10.63695312 59.87078125 -11.22265625 60.21875 C-19.71677479 65.12520245 -27.60115917 67.62919796 -37.5 66.1953125 C-43.83267955 63.68303197 -48.39580536 60.26873679 -51.5 54.1953125 C-53.44928348 48.34746205 -53.31671374 41.64545373 -51.375 35.8203125 C-47.16067498 29.92025748 -43.88844081 26.59656852 -36.5 25.1953125 C-30.61585629 24.3221815 -24.94309412 24.06989701 -19 24.1328125 C-17.76636719 24.13958008 -17.76636719 24.13958008 -16.5078125 24.14648438 C-14.50517604 24.15812761 -12.50257773 24.17605694 -10.5 24.1953125 C-11.50037764 18.42363398 -11.50037764 18.42363398 -14.7421875 13.7265625 C-19.76974227 10.935059 -24.91955814 11.52946432 -30.5 12.1953125 C-33.53494288 13.09166205 -36.36369996 14.1426699 -39.2578125 15.41796875 C-41.5 16.1953125 -41.5 16.1953125 -44.5 15.1953125 C-46.71705325 11.90140481 -48.25219657 9.37926223 -49.0625 5.5078125 C-48.19771765 1.95259619 -46.5959498 1.09079197 -43.5 -0.8046875 C-30.85911835 -6.03299333 -11.70134099 -8.44690553 0 0 Z " fill="#214182" transform="translate(494.5,621.8046875)"/>
<path d="M0 0 C1.25671509 0.0146228 1.25671509 0.0146228 2.53881836 0.02954102 C13.09965865 0.33233506 19.85872323 3.57481483 27.484375 10.97265625 C34.79216281 19.38728053 34.09463437 28.92290833 33.625 39.4375 C31.25109164 40.62445418 29.82255049 40.55825833 27.17529297 40.55102539 C26.25448944 40.55094986 25.33368591 40.55087433 24.38497925 40.55079651 C22.89117233 40.54305458 22.89117233 40.54305458 21.3671875 40.53515625 C20.34899933 40.5337413 19.33081116 40.53232635 18.2817688 40.53086853 C15.02114965 40.525259 11.76059849 40.51270488 8.5 40.5 C6.29296974 40.49498623 4.08593841 40.49042311 1.87890625 40.48632812 C-3.53908581 40.47528648 -8.95703805 40.45853905 -14.375 40.4375 C-13.7635536 41.72149972 -13.14497414 43.00210412 -12.5234375 44.28125 C-12.17974121 44.99474609 -11.83604492 45.70824219 -11.48193359 46.44335938 C-9.57942301 49.87073177 -8.01708318 50.9304311 -4.375 52.4375 C3.60724782 53.46588776 10.06092462 53.22167731 16.7578125 48.53125 C18.625 47.4375 18.625 47.4375 22.625 47.4375 C24.4765625 49.046875 24.4765625 49.046875 26.25 51.1875 C26.84039063 51.88359375 27.43078125 52.5796875 28.0390625 53.296875 C29.51035946 55.28276351 30.60399762 57.19331655 31.625 59.4375 C19.16377453 68.58910422 9.30501887 71.58832707 -6.375 70.4375 C-15.13673748 68.45452374 -22.30435829 64.65035448 -27.5625 57.3125 C-34.05672917 46.69191075 -35.74059521 36.69160212 -34.375 24.4375 C-33.28052905 20.8565121 -31.73468468 18.3234453 -29.375 15.4375 C-28.72402344 14.63570312 -28.07304688 13.83390625 -27.40234375 13.0078125 C-19.47631784 3.73362144 -12.28110824 -0.15959131 0 0 Z " fill="#214183" transform="translate(593.375,617.5625)"/>
<path d="M0 0 C7.26 0 14.52 0 22 0 C18.76309707 10.78967643 18.76309707 10.78967643 15.99951172 16.02539062 C14.24640086 19.48879087 12.92972611 23.12098221 11.5625 26.75 C7.23788218 38.14663989 2.46306674 49.34029356 -2.4375 60.5 C-2.88931641 61.53769531 -3.34113281 62.57539062 -3.80664062 63.64453125 C-16.5164127 92.59757231 -16.5164127 92.59757231 -29.09375 98.1875 C-37.72957086 100.60181551 -46.62891138 100.08079838 -54.55859375 95.875 C-55.03425781 95.58625 -55.50992188 95.2975 -56 95 C-54.58707905 90.1725201 -52.57025846 86.2837641 -50 82 C-49.19175781 82.04640625 -48.38351562 82.0928125 -47.55078125 82.140625 C-41.02394945 82.47350558 -41.02394945 82.47350558 -35 80.375 C-30.88103891 75.4837337 -28.4978463 72.54419657 -29 66 C-29.87991581 63.16570216 -29.87991581 63.16570216 -31.1875 60.375 C-32.93144417 56.42205989 -34.64654987 52.463928 -36.30078125 48.47265625 C-38.14909909 44.02153482 -40.02919665 39.58589562 -41.9375 35.16015625 C-42.44023438 33.99419922 -42.94296875 32.82824219 -43.4609375 31.62695312 C-44.48555774 29.25394304 -45.51159583 26.88154465 -46.5390625 24.50976562 C-49.88752942 16.7353123 -53.00674937 8.91780818 -56 1 C-48.41 1 -40.82 1 -33 1 C-29.16208827 10.03038053 -25.58275815 18.89355464 -22.78564453 28.29296875 C-20.94880466 34.38619944 -18.58542844 40.19103739 -16 46 C-15.81937012 45.4423999 -15.63874023 44.8847998 -15.45263672 44.31030273 C-12.06875856 33.90535838 -8.61745993 23.60258068 -4.359375 13.51953125 C-2.65336978 9.10254647 -1.36059173 4.53530578 0 0 Z " fill="#204080" transform="translate(764,618)"/>
<path d="M0 0 C6.93 0 13.86 0 21 0 C21 5.28 21 10.56 21 16 C25.95 16 30.9 16 36 16 C36 21.28 36 26.56 36 32 C31.05 32 26.1 32 21 32 C21.09683952 36.66358737 21.19950359 41.32626504 21.31738281 45.98925781 C21.35570585 47.57609138 21.39055288 49.16301281 21.421875 50.75 C21.46745431 53.02896566 21.52545838 55.30732468 21.5859375 57.5859375 C21.59748871 58.29744965 21.60903992 59.00896179 21.62094116 59.74203491 C21.63408239 63.82103657 21.63408239 63.82103657 24 67 C26.44012949 67.24287489 26.44012949 67.24287489 29.125 67.125 C30.03507813 67.10695313 30.94515625 67.08890625 31.8828125 67.0703125 C32.58148437 67.04710937 33.28015625 67.02390625 34 67 C34.70133599 68.57725347 35.385583 70.16211333 36.0625 71.75 C36.44535156 72.63171875 36.82820312 73.5134375 37.22265625 74.421875 C38.05731678 77.19009584 38.22026119 78.39333878 37 81 C29.61386862 84.69306569 23.19931709 85.92489128 15 85 C8.96479916 82.65783671 5.15396653 78.51436645 1.8125 73.0625 C-0.22345779 67.89429944 -0.1373135 62.45297758 -0.09765625 56.9765625 C-0.0962413 56.23038666 -0.09482635 55.48421082 -0.09336853 54.71542358 C-0.08780874 52.35190682 -0.07526389 49.98848773 -0.0625 47.625 C-0.0574798 46.01432429 -0.0529178 44.40364709 -0.04882812 42.79296875 C-0.03785251 38.86194201 -0.02061596 34.93098752 0 31 C-2.97 31 -5.94 31 -9 31 C-9 26.05 -9 21.1 -9 16 C-6.03 16 -3.06 16 0 16 C0 10.72 0 5.44 0 0 Z " fill="#21407E" transform="translate(520,603)"/>
<path d="M0 0 C6.6 0 13.2 0 20 0 C20 5.28 20 10.56 20 16 C25.28 16 30.56 16 36 16 C36 21.28 36 26.56 36 32 C31.05 32 26.1 32 21 32 C21.11976708 36.66327136 21.242358 41.32628515 21.37231445 45.98925781 C21.41567241 47.57612657 21.45734687 49.16304224 21.49731445 50.75 C21.55499632 53.02878979 21.61869638 55.30734322 21.68359375 57.5859375 C21.70030624 58.29744965 21.71701874 59.00896179 21.73423767 59.74203491 C21.79721937 63.49660817 21.79721937 63.49660817 23 67 C26.96 67 30.92 67 35 67 C38.42857143 76.57142857 38.42857143 76.57142857 38 81 C36.75108386 81.48198463 35.50081192 81.96045677 34.25 82.4375 C33.55390625 82.70433594 32.8578125 82.97117187 32.140625 83.24609375 C25.06777046 85.73708084 17.84905415 86.07452397 10.8515625 83.10546875 C5.23465191 79.75191242 1.93745698 74.12589903 0 68 C-0.37603659 65.06340184 -0.35217673 62.17926191 -0.29296875 59.22265625 C-0.28872391 58.41130722 -0.28447906 57.59995819 -0.28010559 56.76402283 C-0.26343867 54.19649744 -0.22581048 51.62978436 -0.1875 49.0625 C-0.1724376 47.31186037 -0.15875193 45.56120832 -0.14648438 43.81054688 C-0.11357468 39.54005608 -0.06187726 35.27016531 0 31 C-2.97 31 -5.94 31 -9 31 C-9 26.05 -9 21.1 -9 16 C-6.03 16 -3.06 16 0 16 C0 10.72 0 5.44 0 0 Z " fill="#234384" transform="translate(354,603)"/>
<path d="M0 0 C6.93 0 13.86 0 21 0 C21 32.01 21 64.02 21 97 C14.07 97 7.14 97 0 97 C0 64.99 0 32.98 0 0 Z " fill="#264587" transform="translate(239,589)"/>
<path d="M0 0 C0 6.27 0 12.54 0 19 C-1.52625 19.2475 -3.0525 19.495 -4.625 19.75 C-10.51578265 20.94812528 -14.25253171 22.87566613 -18.12597656 27.58447266 C-20.48788149 31.88919516 -20.60196882 35.07464847 -20.609375 39.8984375 C-20.62591125 40.73339752 -20.64244751 41.56835754 -20.65948486 42.42861938 C-20.70780345 45.07748895 -20.72929925 47.72578512 -20.75 50.375 C-20.77817328 52.17841401 -20.80810261 53.9818015 -20.83984375 55.78515625 C-20.9168437 60.19036376 -20.95750999 64.59378585 -21 69 C-27.93 69 -34.86 69 -42 69 C-42 46.89 -42 24.78 -42 2 C-35.4 2 -28.8 2 -22 2 C-21.67 4.64 -21.34 7.28 -21 10 C-20.319375 9.071875 -19.63875 8.14375 -18.9375 7.1875 C-14.15991046 1.46518937 -7.20338388 0 0 0 Z " fill="#234386" transform="translate(440,617)"/>
<path d="M0 0 C2.7972908 2.06756277 3.02692273 3.14440371 3.6875 6.6875 C3.790625 7.780625 3.89375 8.87375 4 10 C6.97 9.01 9.94 8.02 13 7 C13.66 7.99 14.32 8.98 15 10 C18.56769552 10.73606499 18.56769552 10.73606499 22 11 C21.34 11.99 20.68 12.98 20 14 C19.92727438 16.55460214 19.92727438 16.55460214 21 19 C23.46115547 20.84434349 23.46115547 20.84434349 26 22 C25.25 29.75 25.25 29.75 23 32 C22.53993654 34.20250992 22.53993654 34.20250992 22.375 36.625 C22.30023438 37.44226563 22.22546875 38.25953125 22.1484375 39.1015625 C22.09945312 39.72804688 22.05046875 40.35453125 22 41 C22.66 41 23.32 41 24 41 C24 41.66 24 42.32 24 43 C21.36 42.67 18.72 42.34 16 42 C16.33 41.01 16.66 40.02 17 39 C17.66 39 18.32 39 19 39 C19.33 36.36 19.66 33.72 20 31 C20.66 31 21.32 31 22 31 C22 30.01 22 29.02 22 28 C17.05 29.485 17.05 29.485 12 31 C13.32 31.99 14.64 32.98 16 34 C16 34.99 16 35.98 16 37 C13.01405576 38.49297212 10.29146376 38.11755228 7 38 C6.34 37.67 5.68 37.34 5 37 C5 36.01 5 35.02 5 34 C3.88625 33.896875 2.7725 33.79375 1.625 33.6875 C-0.169375 33.3471875 -0.169375 33.3471875 -2 33 C-4.28062828 29.57905758 -4.21925007 28.31812778 -4.125 24.3125 C-4.10695313 23.31863281 -4.08890625 22.32476562 -4.0703125 21.30078125 C-4.04710937 20.54152344 -4.02390625 19.78226562 -4 19 C-4.99 19 -5.98 19 -7 19 C-6.80572085 27.57811679 -6.80572085 27.57811679 -3 35 C-0.15196521 37.09326902 -0.15196521 37.09326902 2.875 37.9375 C5.92926561 38.97595031 8.26507626 40.31697 11 42 C11.886875 42.309375 12.77375 42.61875 13.6875 42.9375 C16 44 16 44 17.3125 45.8125 C18.09802451 48.31189617 18.14472595 50.39493282 18 53 C17.34 53 16.68 53 16 53 C14.68 50.69 13.36 48.38 12 46 C12 46.99 12 47.98 12 49 C12 51.33333333 12 53.66666667 12 56 C11.01 56.33 10.02 56.66 9 57 C8.505 54.03 8.505 54.03 8 51 C4.75267068 52.62366466 4.29844864 55.75387839 3 59 C2.34 59 1.68 59 1 59 C1 55.7 1 52.4 1 49 C0.34 49 -0.32 49 -1 49 C-1.2475 49.804375 -1.495 50.60875 -1.75 51.4375 C-2.1625 52.283125 -2.575 53.12875 -3 54 C-4.98 54.495 -4.98 54.495 -7 55 C-6.67 52.03 -6.34 49.06 -6 46 C-6.598125 46.78375 -7.19625 47.5675 -7.8125 48.375 C-10 51 -10 51 -13 53 C-13.99 53 -14.98 53 -16 53 C-14.50829734 48.0276578 -12.39542583 43.58154261 -10 39 C-10.721875 39.495 -11.44375 39.99 -12.1875 40.5 C-15.14848659 42.07919285 -16.71253029 42.28178312 -20 42 C-20 41.34 -20 40.68 -20 40 C-19.34 40 -18.68 40 -18 40 C-18 39.01 -18 38.02 -18 37 C-19.32 37.99 -20.64 38.98 -22 40 C-22.56638908 35.18569279 -20.82561627 32.79692186 -18 29 C-19.65 28.67 -21.3 28.34 -23 28 C-23 25 -23 25 -21.5 23.3125 C-21.005 22.879375 -20.51 22.44625 -20 22 C-21.32 21.67 -22.64 21.34 -24 21 C-22.906875 20.731875 -21.81375 20.46375 -20.6875 20.1875 C-17.08988064 19.35024611 -17.08988064 19.35024611 -15.4375 17.375 C-14 16 -14 16 -10.8125 15.8125 C-9.884375 15.874375 -8.95625 15.93625 -8 16 C-8 15.34 -8 14.68 -8 14 C-10.31 14 -12.62 14 -15 14 C-15.66 12.68 -16.32 11.36 -17 10 C-14.72923158 9.97300275 -12.45837179 9.95360547 -10.1875 9.9375 C-8.92292969 9.92589844 -7.65835937 9.91429687 -6.35546875 9.90234375 C-3 10 -3 10 0 11 C-2.475 7.535 -2.475 7.535 -5 4 C-2.525 4.495 -2.525 4.495 0 5 C0 3.35 0 1.7 0 0 Z " fill="#EEF2F4" transform="translate(432,455)"/>
<path d="M0 0 C4.98669007 2.49334503 8.49675474 5.99350949 11 11 C12.36155986 24.13302045 12.36155986 24.13302045 8.3125 29.6875 C5.21723365 33.29464502 1.86062011 35.67299728 -2.8671875 36.50390625 C-11.99423123 36.6817058 -11.99423123 36.6817058 -16.0625 33.4375 C-20.39464813 28.90459378 -22.13599689 24.21850174 -22.4375 18 C-22.21000125 11.99403303 -20.42153674 8.51638956 -16.3046875 4.23828125 C-11.22390573 -0.1739766 -6.61449492 -1.29848306 0 0 Z " fill="#F7F8FA" transform="translate(199,634)"/>
<path d="M0 0 C5.54648833 1.98551333 9.38327402 5.76654805 12 11 C12.55674965 16.95293853 12.54141118 21.97348091 9 27 C4.60055553 31.42024562 1.10005729 34.10207066 -5.3125 34.3125 C-9.9199645 34.26754913 -12.41931456 32.98390454 -16 30 C-16.5775 29.525625 -17.155 29.05125 -17.75 28.5625 C-21.18433866 24.26957668 -21.43887269 19.753137 -21.3125 14.4296875 C-20.65957521 9.35319724 -17.5802228 6.3841628 -13.875 3.1875 C-9.20823964 -0.36329592 -5.76412322 -0.68035553 0 0 Z " fill="#F6F8F9" transform="translate(673,634)"/>
<path d="M0 0 C0.99 0 1.98 0 3 0 C3.06058594 0.75925781 3.12117188 1.51851563 3.18359375 2.30078125 C3.26738281 3.29464844 3.35117187 4.28851563 3.4375 5.3125 C3.51871094 6.29863281 3.59992188 7.28476562 3.68359375 8.30078125 C3.91812559 11.09375599 3.91812559 11.09375599 5 14 C7.31 14.33 9.62 14.66 12 15 C12 15.99 12 16.98 12 18 C15.63 18 19.26 18 23 18 C21.21081851 13.89459074 21.21081851 13.89459074 18 11 C23.445 10.01 23.445 10.01 29 9 C29 9.99 29 10.98 29 12 C28.34 12 27.68 12 27 12 C26.896875 13.258125 26.79375 14.51625 26.6875 15.8125 C26.36859319 19.70316313 26.03300139 19.96699861 23 23 C25.97 23 28.94 23 32 23 C32 23.66 32 24.32 32 25 C29.69 25 27.38 25 25 25 C25.33 25.99 25.66 26.98 26 28 C26.04092937 30.33297433 26.04241723 32.66705225 26 35 C25.94692252 37.14111146 25.94692252 37.14111146 26.44921875 39.78515625 C25.94264102 43.4104908 25.64696348 43.69348739 22.89453125 45.80859375 C21.54811203 46.70664874 20.18658331 47.5823728 18.8125 48.4375 C18.13896484 48.89576172 17.46542969 49.35402344 16.77148438 49.82617188 C11.85309922 53.00752735 11.85309922 53.00752735 8.34375 52.9765625 C5.61729931 51.84054138 3.19102962 50.50637856 0.6875 48.9375 C-0.19550781 48.38964844 -1.07851563 47.84179688 -1.98828125 47.27734375 C-2.65214844 46.85582031 -3.31601562 46.43429687 -4 46 C-2.125 40.25 -2.125 40.25 -1 38 C-1.99 38 -2.98 38 -4 38 C-4.66 36.35 -5.32 34.7 -6 33 C-3.42215154 30.35247996 -1.08351902 28.05567935 2 26 C1.54177532 29.46941546 1.10868317 32.67395049 0 36 C3.76430913 34.74523029 4.05044108 33.30577382 6 30 C6.66 30 7.32 30 8 30 C8 33.3 8 36.6 8 40 C11.24732932 38.37633534 11.70155136 35.24612161 13 32 C13.66 32 14.32 32 15 32 C15.33 33.98 15.66 35.96 16 38 C16.99 37.505 16.99 37.505 18 37 C18.12469099 31.42169984 18.12469099 31.42169984 17 26 C20.75376152 27.25125384 21.24073289 28.5652404 23 32 C23 32.66 23 33.32 23 34 C23.66 34 24.32 34 25 34 C24.35370611 30.78872725 23.56773236 27.88873963 22 25 C19.95552216 23.7206335 18.17122338 23.12125727 15.83984375 22.53515625 C14 22 14 22 12 20 C11.071875 19.731875 10.14375 19.46375 9.1875 19.1875 C4.94337553 17.60635559 2.04206118 15.08412236 0 11 C-0.07033769 9.12620395 -0.0843022 7.24998898 -0.0625 5.375 C-0.05347656 4.37210937 -0.04445313 3.36921875 -0.03515625 2.3359375 C-0.01775391 1.17964844 -0.01775391 1.17964844 0 0 Z " fill="#2C4A84" transform="translate(425,474)"/>
<path d="M0 0 C4.56468051 -0.21410321 7.40346013 0.18905035 11.08203125 3.15234375 C14.73697214 6.90606683 15.08203125 7.64981821 15.08203125 13.15234375 C5.51203125 13.15234375 -4.05796875 13.15234375 -13.91796875 13.15234375 C-11.53170266 4.80041242 -11.53170266 4.80041242 -6.91796875 1.15234375 C-4.54961724 0.32022025 -2.48288267 0.19721471 0 0 Z " fill="#F2F5F7" transform="translate(592.91796875,632.84765625)"/>
<path d="M0 0 C0.75732422 0.00644531 1.51464844 0.01289062 2.29492188 0.01953125 C3.08060547 0.03628906 3.86628906 0.05304687 4.67578125 0.0703125 C5.47306641 0.07933594 6.27035156 0.08835937 7.09179688 0.09765625 C9.05742025 0.12119665 11.022889 0.15706703 12.98828125 0.1953125 C13.19140625 7.84375 13.19140625 7.84375 11.36328125 11.0078125 C7.59686534 14.47687979 4.54139463 16.03182688 -0.57421875 16.5703125 C-4.32184448 16.1614806 -6.18522781 15.68927509 -9.01171875 13.1953125 C-10.26604856 9.58911429 -10.34824775 7.93567631 -8.76171875 4.4453125 C-6.1476069 1.08431155 -4.15627457 -0.06250037 0 0 Z " fill="#F1F4F6" transform="translate(471.01171875,656.8046875)"/>
<path d="M0 0 C0.99 0.33 1.98 0.66 3 1 C2.67 1.33 2.34 1.66 2 2 C1.90001157 4.55514483 1.86559096 7.08332309 1.87301636 9.63900757 C1.87145637 10.44881124 1.86989638 11.25861491 1.86828911 12.09295809 C1.86427536 14.82810343 1.86747032 17.56319402 1.87060547 20.29833984 C1.86925149 22.25105828 1.86747157 24.20377645 1.86529541 26.15649414 C1.86071769 31.47932413 1.86251281 36.80213484 1.8656745 42.12496519 C1.86819994 47.69322481 1.86585971 53.26148275 1.86428833 58.82974243 C1.86246566 68.19330136 1.8648739 77.55685242 1.86962891 86.92041016 C1.87505585 97.73167123 1.8733207 108.54291341 1.8678025 119.35417402 C1.86325516 128.6358196 1.86262923 137.91745952 1.86524117 147.19910586 C1.86679707 152.74219041 1.86701686 158.2852661 1.86370468 163.82835007 C1.860803 169.05018236 1.86284372 174.27199049 1.86859894 179.49382019 C1.86991494 181.40491826 1.86955226 183.31601839 1.86733627 185.22711563 C1.85186884 199.14030353 1.85186884 199.14030353 3 213 C2.67 212.01 2.34 211.02 2 210 C1.34 210 0.68 210 0 210 C-0.8742383 204.76061026 -1.12920345 199.75714325 -1.08229065 194.45155334 C-1.07906152 193.61661124 -1.07583239 192.78166914 -1.07250541 191.92142576 C-1.06048984 189.1377548 -1.04110497 186.35418535 -1.02172852 183.57055664 C-1.01157941 181.56955177 -1.00188643 179.56854453 -0.99261475 177.5675354 C-0.96619702 172.1445366 -0.93340469 166.72159292 -0.89946485 161.29863667 C-0.86505908 155.62785713 -0.83652007 149.95704812 -0.80735779 144.28623962 C-0.75126505 133.55186739 -0.68989883 122.81753204 -0.62663645 112.08319992 C-0.55486107 99.8608008 -0.48896693 87.63837218 -0.42356598 75.41593754 C-0.28891984 50.27725342 -0.14689064 25.13861535 0 0 Z " fill="#344777" transform="translate(248,121)"/>
<path d="M0 0 C0.99 0 1.98 0 3 0 C3.06058594 0.75925781 3.12117188 1.51851563 3.18359375 2.30078125 C3.26738281 3.29464844 3.35117187 4.28851563 3.4375 5.3125 C3.55931641 6.79169922 3.55931641 6.79169922 3.68359375 8.30078125 C3.91812559 11.09375599 3.91812559 11.09375599 5 14 C7.31 14.33 9.62 14.66 12 15 C12 15.99 12 16.98 12 18 C15.63 18 19.26 18 23 18 C21.21081851 13.89459074 21.21081851 13.89459074 18 11 C23.445 10.01 23.445 10.01 29 9 C29 9.99 29 10.98 29 12 C28.34 12 27.68 12 27 12 C26.896875 13.258125 26.79375 14.51625 26.6875 15.8125 C26.36859319 19.70316313 26.03300139 19.96699861 23 23 C25.97 23 28.94 23 32 23 C32 23.66 32 24.32 32 25 C29.69 25 27.38 25 25 25 C25.33 25.99 25.66 26.98 26 28 C26.03954234 30.33299825 26.04401732 32.66708189 26 35 C25.34 34.67 24.68 34.34 24 34 C23.61936779 31.6739143 23.28730055 29.33944736 23 27 C22.19646447 24.86054904 22.19646447 24.86054904 20.22265625 24.21875 C19.50980469 23.9815625 18.79695313 23.744375 18.0625 23.5 C15.29544796 22.57597536 14.10862631 22.10862631 12 20 C11.071875 19.731875 10.14375 19.46375 9.1875 19.1875 C4.94337553 17.60635559 2.04206118 15.08412236 0 11 C-0.07033769 9.12620395 -0.0843022 7.24998898 -0.0625 5.375 C-0.05347656 4.37210937 -0.04445313 3.36921875 -0.03515625 2.3359375 C-0.02355469 1.56507813 -0.01195312 0.79421875 0 0 Z " fill="#465B80" transform="translate(425,474)"/>
<path d="M0 0 C0 0.99 0 1.98 0 3 C-0.66 3 -1.32 3 -2 3 C-2.1546875 4.8871875 -2.1546875 4.8871875 -2.3125 6.8125 C-2.63140681 10.70316313 -2.96699861 10.96699861 -6 14 C-3.03 14 -0.06 14 3 14 C3 14.66 3 15.32 3 16 C0.69 16 -1.62 16 -4 16 C-3.67 16.99 -3.34 17.98 -3 19 C-2.96045766 21.33299825 -2.95598268 23.66708189 -3 26 C-3.66 25.67 -4.32 25.34 -5 25 C-5.38063221 22.6739143 -5.71269945 20.33944736 -6 18 C-7.25541557 15.48916886 -8.50063488 15.12874554 -11 14 C-9.68 14 -8.36 14 -7 14 C-7 13.34 -7 12.68 -7 12 C-8.65 11.67 -10.3 11.34 -12 11 C-8.25 9 -8.25 9 -6 9 C-7.3024333 6.09457188 -8.70886268 4.1907039 -11 2 C-9.5422647 1.664061 -8.08378894 1.33133376 -6.625 1 C-5.40683594 0.7215625 -5.40683594 0.7215625 -4.1640625 0.4375 C-2 0 -2 0 0 0 Z " fill="#7992AB" transform="translate(454,483)"/>
<path d="M0 0 C2.25 0.125 2.25 0.125 5 1 C7.1875 4 7.1875 4 9 7 C9.66 7.33 10.32 7.66 11 8 C10.67 6.68 10.34 5.36 10 4 C10.99 4.33 11.98 4.66 13 5 C12.25 12.75 12.25 12.75 10 15 C9.53993654 17.20250992 9.53993654 17.20250992 9.375 19.625 C9.30023438 20.44226563 9.22546875 21.25953125 9.1484375 22.1015625 C9.09945313 22.72804688 9.05046875 23.35453125 9 24 C9.66 24 10.32 24 11 24 C11 24.66 11 25.32 11 26 C8.36 25.67 5.72 25.34 3 25 C3.33 24.01 3.66 23.02 4 22 C4.66 22 5.32 22 6 22 C6.33 19.36 6.66 16.72 7 14 C7.66 14 8.32 14 9 14 C9 13.01 9 12.02 9 11 C8.34 10.67 7.68 10.34 7 10 C5.944178 8.90777035 4.92713106 7.7775433 3.9375 6.625 C3.41027344 6.01914062 2.88304687 5.41328125 2.33984375 4.7890625 C1 3 1 3 0 0 Z " fill="#B4C2D1" transform="translate(445,472)"/>
<path d="M0 0 C3.63 0 7.26 0 11 0 C11 0.33 11 0.66 11 1 C8.36 1.33 5.72 1.66 3 2 C2.67 22.79 2.34 43.58 2 65 C4.64 65 7.28 65 10 65 C10 65.33 10 65.66 10 66 C7.03 66 4.06 66 1 66 C0.67 44.22 0.34 22.44 0 0 Z " fill="#1D3677" transform="translate(398,619)"/>
<path d="M0 0 C0.33 0.66 0.66 1.32 1 2 C-0.11799986 3.33920838 -1.24461897 4.67122556 -2.375 6 C-3.31472656 7.11375 -3.31472656 7.11375 -4.2734375 8.25 C-4.84320313 8.8275 -5.41296875 9.405 -6 10 C-6.66 10 -7.32 10 -8 10 C-8.38285156 10.87785156 -8.38285156 10.87785156 -8.7734375 11.7734375 C-10.11537414 14.20943713 -11.5987384 15.7321548 -13.625 17.625 C-15.50575752 19.33829787 -15.50575752 19.33829787 -17 21 C-17 21.66 -17 22.32 -17 23 C-19.35438733 24.42944945 -20.48032433 25.08661261 -23.25 24.625 C-24.11625 24.315625 -24.11625 24.315625 -25 24 C-23.625 22.5 -23.625 22.5 -22 21 C-21.34 21 -20.68 21 -20 21 C-19.67 20.01 -19.34 19.02 -19 18 C-17.5390625 16.5625 -17.5390625 16.5625 -15.625 15 C-10.09342288 10.32330298 -5.0753467 5.15931384 0 0 Z " fill="#325184" transform="translate(329,309)"/>
<path d="M0 0 C0.33 0 0.66 0 1 0 C3.5773361 11.59801243 2.20596875 21.54243292 -4.125 31.5625 C-6 34 -6 34 -8 35 C-7.43103982 31.44399886 -5.73916729 28.80153581 -3.9140625 25.7421875 C-2.76817598 23.55814738 -2.41434433 21.41700861 -2 19 C-1.34 18.34 -0.68 17.68 0 17 C0.14517744 14.0906442 0.18630796 11.280054 0.125 8.375 C0.11597656 7.57320312 0.10695312 6.77140625 0.09765625 5.9453125 C0.07406223 3.96341477 0.03819065 1.98167019 0 0 Z " fill="#495981" transform="translate(229,641)"/>
<path d="M0 0 C0 0.99 0 1.98 0 3 C-0.66 3 -1.32 3 -2 3 C-2.33 4.98 -2.66 6.96 -3 9 C-4.32 9.33 -5.64 9.66 -7 10 C-7.103125 9.236875 -7.20625 8.47375 -7.3125 7.6875 C-8.05790616 4.77363954 -8.84458939 3.97049603 -11 2 C-9.5422647 1.664061 -8.08378894 1.33133376 -6.625 1 C-5.40683594 0.7215625 -5.40683594 0.7215625 -4.1640625 0.4375 C-2 0 -2 0 0 0 Z " fill="#3A567C" transform="translate(454,483)"/>
<path d="M0 0 C0.66 0 1.32 0 2 0 C1.66840114 3.56468772 1.43744356 5.51471105 -1 8.21875 C-3.50861902 11.70729833 -3.6626133 14.66163174 -3.75 18.8125 C-3.77964844 19.50537109 -3.80929687 20.19824219 -3.83984375 20.91210938 C-3.90999628 22.60746213 -3.95732662 24.30373312 -4 26 C-4.33 26 -4.66 26 -5 26 C-5.95744681 7.46808511 -5.95744681 7.46808511 0 0 Z " fill="#596B8E" transform="translate(564,633)"/>
<path d="M0 0 C0 1.95933042 -0.05998847 3.91982315 -0.1875 5.875 C0.0245879 9.40979826 0.98218849 11.14143369 3 14 C-0.11198065 12.50163895 -3.0534615 10.80066242 -6 9 C-5.52797514 4.75177626 -3.03344482 2.80010291 0 0 Z " fill="#465C88" transform="translate(273,666)"/>
<path d="M0 0 C0.84205836 2.37922307 1.14174203 3.59929592 0.28735352 6.01464844 C-0.09493408 6.7059082 -0.47722168 7.39716797 -0.87109375 8.109375 C-1.28037109 8.86347656 -1.68964844 9.61757813 -2.11132812 10.39453125 C-2.54896484 11.17183594 -2.98660156 11.94914062 -3.4375 12.75 C-3.87126953 13.54277344 -4.30503906 14.33554687 -4.75195312 15.15234375 C-5.82392454 17.10780809 -6.90678122 19.05635908 -8 21 C-8.33 19.68 -8.66 18.36 -9 17 C-8.34 17 -7.68 17 -7 17 C-7.0928125 15.6078125 -7.0928125 15.6078125 -7.1875 14.1875 C-7 11 -7 11 -5.625 9.4375 C-5.08875 8.963125 -4.5525 8.48875 -4 8 C-2.80972016 5.40084462 -2.80972016 5.40084462 -2 3 C-1.34 3 -0.68 3 0 3 C0 2.01 0 1.02 0 0 Z " fill="#334A7C" transform="translate(586,378)"/>
<path d="M0 0 C0.66 0.33 1.32 0.66 2 1 C0.515 3.475 0.515 3.475 -1 6 C0.98 6.99 2.96 7.98 5 9 C2.18185434 10.40907283 0.82722796 9.50872691 -2.125 8.5625 C-3.03507812 8.27503906 -3.94515625 7.98757812 -4.8828125 7.69140625 C-5.58148438 7.46324219 -6.28015625 7.23507813 -7 7 C-7 6.01 -7 5.02 -7 4 C-1.7265625 0.77734375 -1.7265625 0.77734375 0 0 Z " fill="#526D94" transform="translate(509,180)"/>
<path d="M0 0 C2.475 0.495 2.475 0.495 5 1 C5 1.99 5 2.98 5 4 C8.3 4.99 11.6 5.98 15 7 C15 7.66 15 8.32 15 9 C10.38708167 9.31451716 8.54883846 8.8619665 5 6 C2.35065178 5.28566879 2.35065178 5.28566879 0 5 C1.32 4.67 2.64 4.34 4 4 C4 3.34 4 2.68 4 2 C2.68 1.67 1.36 1.34 0 1 C0 0.67 0 0.34 0 0 Z " fill="#4A6D90" transform="translate(432,488)"/>
<path d="M0 0 C3.78496138 1.51398455 4.0072198 2.0144396 6 6 C0.39 5.67 -5.22 5.34 -11 5 C-11.33 5.66 -11.66 6.32 -12 7 C-12 6.01 -12 5.02 -12 4 C-10.95199219 3.94392578 -10.95199219 3.94392578 -9.8828125 3.88671875 C-8.97273438 3.82097656 -8.06265625 3.75523437 -7.125 3.6875 C-6.22007812 3.62949219 -5.31515625 3.57148438 -4.3828125 3.51171875 C-1.63778399 3.2117961 -1.63778399 3.2117961 0 0 Z " fill="#465E8B" transform="translate(426,460)"/>
<path d="M0 0 C1.32 0.33 2.64 0.66 4 1 C3.34 1 2.68 1 2 1 C2.33 4.63 2.66 8.26 3 12 C4.65 12.33 6.3 12.66 8 13 C8 13.33 8 13.66 8 14 C5.36 14 2.72 14 0 14 C0 9.38 0 4.76 0 0 Z " fill="#233A6B" transform="translate(345,620)"/>
<path d="M0 0 C1.32 0.33 2.64 0.66 4 1 C2.56877218 2.48523642 1.12979111 3.96300462 -0.3125 5.4375 C-1.11300781 6.26121094 -1.91351562 7.08492187 -2.73828125 7.93359375 C-5 10 -5 10 -8 11 C-6.63629701 8.00779732 -5.05091917 5.70973471 -2.875 3.25 C-2.33617187 2.63640625 -1.79734375 2.0228125 -1.2421875 1.390625 C-0.62730469 0.70226562 -0.62730469 0.70226562 0 0 Z " fill="#3C5582" transform="translate(644,623)"/>
<path d="M0 0 C0.33 0 0.66 0 1 0 C0.88608368 2.60508636 0.75934452 5.20845546 0.625 7.8125 C0.5940625 8.55048828 0.563125 9.28847656 0.53125 10.04882812 C0.32653852 13.81893115 0.13566173 15.79650741 -2 19 C-2.05451714 16.95863605 -2.09302485 14.91684144 -2.125 12.875 C-2.14820313 11.73804688 -2.17140625 10.60109375 -2.1953125 9.4296875 C-1.99672109 5.94242233 -1.2524801 3.2446138 0 0 Z " fill="#4C618E" transform="translate(640,325)"/>
<path d="M0 0 C5.14558605 -0.30268153 7.74320715 0.1621381 12 3 C13.98451771 3.71143088 15.98202112 4.38991336 18 5 C14.67429578 6.66285211 11.31639055 4.98079852 7.875 4.0625 C6.74384766 3.76956055 6.74384766 3.76956055 5.58984375 3.47070312 C3.72491694 2.98676642 1.86223541 2.49419231 0 2 C0 1.34 0 0.68 0 0 Z " fill="#465D87" transform="translate(498,115)"/>
<path d="M0 0 C2.25 0.125 2.25 0.125 5 1 C9 6.08108108 9 6.08108108 9 9 C5.18063472 7.44396229 2.73955562 5.04395069 0 2 C0 1.34 0 0.68 0 0 Z " fill="#56687C" transform="translate(445,472)"/>
<path d="M0 0 C1.8871875 0.0309375 1.8871875 0.0309375 3.8125 0.0625 C0.88339056 2.01523962 -1.26882291 2.81646363 -4.625 3.75 C-5.57246094 4.02199219 -6.51992188 4.29398438 -7.49609375 4.57421875 C-10.17668237 5.06053744 -11.65037583 4.95619149 -14.1875 4.0625 C-13.1875 3.0625 -13.1875 3.0625 -10.125 3 C-8.6709375 3.0309375 -8.6709375 3.0309375 -7.1875 3.0625 C-7.1875 2.4025 -7.1875 1.7425 -7.1875 1.0625 C-4.43671116 0.14557039 -2.82801087 -0.04636083 0 0 Z " fill="#3D5784" transform="translate(308.1875,130.9375)"/>
<path d="M0 0 C0 3 0 3 -1.609375 5.0078125 C-2.66898437 6.05582031 -2.66898437 6.05582031 -3.75 7.125 C-4.44609375 7.82882812 -5.1421875 8.53265625 -5.859375 9.2578125 C-7.99788242 10.99827657 -9.30910227 11.60000169 -12 12 C-8.32167983 7.47384007 -4.58913637 3.60575001 0 0 Z " fill="#436190" transform="translate(362,278)"/>
<path d="M0 0 C0.68707555 2.49064888 1 4.37886292 1 7 C2.32 7.33 3.64 7.66 5 8 C5 8.66 5 9.32 5 10 C-0.99725275 7.89285714 -0.99725275 7.89285714 -3 5 C-2.8125 2.875 -2.8125 2.875 -2 1 C-1.34 0.67 -0.68 0.34 0 0 Z " fill="#3B537F" transform="translate(82,670)"/>
<path d="M0 0 C0.66 0 1.32 0 2 0 C1.37321829 3.66172475 0.35548154 6.8818995 -1.0625 10.3125 C-1.42472656 11.19550781 -1.78695312 12.07851563 -2.16015625 12.98828125 C-2.43730469 13.65214844 -2.71445312 14.31601562 -3 15 C-3.33 15 -3.66 15 -4 15 C-4.59720137 9.17728663 -2.528243 5.0790596 0 0 Z " fill="#2F4677" transform="translate(776,636)"/>
<path d="M0 0 C0.33 0 0.66 0 1 0 C1.33 2.64 1.66 5.28 2 8 C3.32 6.68 4.64 5.36 6 4 C5.62403791 6.78211944 5.32681541 8.5879284 3.5625 10.8125 C2 12 2 12 0 12 C0 8.04 0 4.08 0 0 Z " fill="#415F8E" transform="translate(417,619)"/>
<path d="M0 0 C0.99 0 1.98 0 3 0 C1.45730076 4.72065967 -0.07794619 9.41664092 -2 14 C-2.33 14 -2.66 14 -3 14 C-3.125 8.25 -3.125 8.25 -2 6 C-1.34 6 -0.68 6 0 6 C0 4.02 0 2.04 0 0 Z " fill="#3E5081" transform="translate(593,360)"/>
<path d="M0 0 C0.99 0.33 1.98 0.66 3 1 C2.34 3.97 1.68 6.94 1 10 C-2 7 -2 7 -2.3125 4.4375 C-2 2 -2 2 0 0 Z " fill="#324F89" transform="translate(448,623)"/>
<path d="M0 0 C4.455 0.99 4.455 0.99 9 2 C9 2.66 9 3.32 9 4 C7.88625 4.309375 6.7725 4.61875 5.625 4.9375 C2.2054845 5.82326483 2.2054845 5.82326483 0 7 C0 4.69 0 2.38 0 0 Z " fill="#5A6F9F" transform="translate(415,467)"/>
<path d="M0 0 C0.99 0.66 1.98 1.32 3 2 C1.75453595 5.73639216 0.36595047 6.18756513 -3 8 C-3 7.34 -3 6.68 -3 6 C-3.66 6 -4.32 6 -5 6 C-4.67 5.01 -4.34 4.02 -4 3 C-1.9375 2.3125 -1.9375 2.3125 0 2 C0 1.34 0 0.68 0 0 Z " fill="#3B568E" transform="translate(622,673)"/>
<path d="M0 0 C0.33 0.66 0.66 1.32 1 2 C2.98 2 4.96 2 7 2 C6.67 2.99 6.34 3.98 6 5 C4.02 5.33 2.04 5.66 0 6 C0 4.02 0 2.04 0 0 Z " fill="#2E4670" transform="translate(436,459)"/>
<path d="M0 0 C0.99 0 1.98 0 3 0 C0.10933941 9.59453303 0.10933941 9.59453303 -3 13 C-2.67 10.36 -2.34 7.72 -2 5 C-1.34 5 -0.68 5 0 5 C0 3.35 0 1.7 0 0 Z " fill="#475B83" transform="translate(766,660)"/>
<path d="M0 0 C0.928125 1.175625 0.928125 1.175625 1.875 2.375 C3.89858661 4.96837647 3.89858661 4.96837647 6 7 C6 7.99 6 8.98 6 10 C2.78970286 8.89300099 1.99031023 7.98396175 0.1875 5 C-0.4003125 3.515 -0.4003125 3.515 -1 2 C-0.67 1.34 -0.34 0.68 0 0 Z " fill="#E2E8EA" transform="translate(450,470)"/>
<path d="M0 0 C0.33 0.99 0.66 1.98 1 3 C-1.31 5.31 -3.62 7.62 -6 10 C-6.66 9.34 -7.32 8.68 -8 8 C-5.36 5.36 -2.72 2.72 0 0 Z " fill="#2C4C81" transform="translate(450,337)"/>
<path d="M0 0 C0.66 0.33 1.32 0.66 2 1 C0.92807816 2.3218362 -0.15802695 3.63217927 -1.25 4.9375 C-1.85328125 5.66839844 -2.4565625 6.39929688 -3.078125 7.15234375 C-5.10741134 9.10326334 -6.254407 9.61731779 -9 10 C-8.06409496 8.8944811 -7.12620142 7.79064547 -6.1875 6.6875 C-5.66542969 6.07261719 -5.14335937 5.45773437 -4.60546875 4.82421875 C-3.12827531 3.14575321 -1.59960869 1.56117966 0 0 Z " fill="#506997" transform="translate(339,299)"/>
<path d="M0 0 C0.66 0.33 1.32 0.66 2 1 C0.84826645 3.46800047 -0.04783565 5.04783565 -2 7 C-3.32 6.67 -4.64 6.34 -6 6 C-4.02 4.02 -2.04 2.04 0 0 Z " fill="#385282" transform="translate(572,624)"/>
<path d="M0 0 C0.33 0.66 0.66 1.32 1 2 C0.05016642 3.50539661 -0.91011891 5.00420347 -1.875 6.5 C-2.40867187 7.3353125 -2.94234375 8.170625 -3.4921875 9.03125 C-3.98976563 9.6809375 -4.48734375 10.330625 -5 11 C-5.66 11 -6.32 11 -7 11 C-5.5140084 6.40693504 -3.14985318 3.56430755 0 0 Z " fill="#4B6692" transform="translate(583,416)"/>
<path d="M0 0 C0.66 0 1.32 0 2 0 C2.23509196 4.81938524 1.45184478 8.46298506 0 13 C-0.66 12.67 -1.32 12.34 -2 12 C-1.34 8.04 -0.68 4.08 0 0 Z " fill="#395386" transform="translate(614,346)"/>
<path d="M0 0 C0.33 0 0.66 0 1 0 C1.21192221 5.19209404 0.5912689 9.126739 -1 14 C-1.66 13.67 -2.32 13.34 -3 13 C-2.01 8.71 -1.02 4.42 0 0 Z " fill="#253F7B" transform="translate(636,344)"/>
<path d="M0 0 C0.99 0.33 1.98 0.66 3 1 C1.35 2.98 -0.3 4.96 -2 7 C-2.99 6.67 -3.98 6.34 -5 6 C-3.35 4.02 -1.7 2.04 0 0 Z " fill="#3C588C" transform="translate(514,205)"/>
<path d="M0 0 C1.32 0.66 2.64 1.32 4 2 C4 2.66 4 3.32 4 4 C2.02 4.66 0.04 5.32 -2 6 C-1.125 1.125 -1.125 1.125 0 0 Z " fill="#2E4674" transform="translate(88,660)"/>
<path d="M0 0 C0.763125 0.309375 1.52625 0.61875 2.3125 0.9375 C4.18789677 1.67893593 6.08684652 2.36228217 8 3 C8 3.66 8 4.32 8 5 C5.69 4.67 3.38 4.34 1 4 C0.67 2.68 0.34 1.36 0 0 Z " fill="#2B497C" transform="translate(428,487)"/>
<path d="M0 0 C0.99 0.33 1.98 0.66 3 1 C2.67 3.64 2.34 6.28 2 9 C1.34 9 0.68 9 0 9 C0 8.34 0 7.68 0 7 C-0.99 6.67 -1.98 6.34 -3 6 C-1.68 5.34 -0.36 4.68 1 4 C0.67 2.68 0.34 1.36 0 0 Z " fill="#C3CCD6" transform="translate(455,476)"/>
<path d="M0 0 C0.99 0 1.98 0 3 0 C3 4.38968456 0.87194899 5.76905739 -2 9 C-3 6 -3 6 -1.5625 2.8125 C-1.046875 1.884375 -0.53125 0.95625 0 0 Z " fill="#213A79" transform="translate(586,360)"/>
<path d="M0 0 C0.66 0.33 1.32 0.66 2 1 C1.54917531 2.46067199 1.08906463 3.91848032 0.625 5.375 C0.36976563 6.18710937 0.11453125 6.99921875 -0.1484375 7.8359375 C-1 10 -1 10 -3 12 C-2.49202991 7.6822542 -1.80317221 3.96697886 0 0 Z " fill="#324772" transform="translate(758,679)"/>
<path d="M0 0 C1.32 0.33 2.64 0.66 4 1 C0.535 3.97 0.535 3.97 -3 7 C-2.25 2.25 -2.25 2.25 0 0 Z " fill="#395388" transform="translate(279,603)"/>
<path d="M0 0 C0.33 0.66 0.66 1.32 1 2 C0.67 2.66 0.34 3.32 0 4 C0.66 4.33 1.32 4.66 2 5 C-0.35438733 6.42944945 -1.48032433 7.08661261 -4.25 6.625 C-4.8275 6.41875 -5.405 6.2125 -6 6 C-4.625 4.5 -4.625 4.5 -3 3 C-2.34 3 -1.68 3 -1 3 C-0.67 2.01 -0.34 1.02 0 0 Z " fill="#486795" transform="translate(310,327)"/>
<path d="M0 0 C5.75 -0.125 5.75 -0.125 8 1 C8 1.66 8 2.32 8 3 C2.25 3.125 2.25 3.125 0 2 C0 1.34 0 0.68 0 0 Z " fill="#3E537A" transform="translate(439,494)"/>
<path d="M0 0 C0.33 0 0.66 0 1 0 C1 2.64 1 5.28 1 8 C-0.65 8 -2.3 8 -4 8 C-3.67 7.34 -3.34 6.68 -3 6 C-2.34 6 -1.68 6 -1 6 C-1.020625 5.195625 -1.04125 4.39125 -1.0625 3.5625 C-1 1 -1 1 0 0 Z " fill="#E4EAED" transform="translate(452,488)"/>
<path d="M0 0 C0.185625 0.9590625 0.185625 0.9590625 0.375 1.9375 C0.684375 2.9584375 0.684375 2.9584375 1 4 C1.66 4.33 2.32 4.66 3 5 C1.35 6.32 -0.3 7.64 -2 9 C-2.20140476 5.37471432 -1.85776765 3.13498292 0 0 Z " fill="#CED7E1" transform="translate(412,486)"/>
<path d="M0 0 C0.66 0 1.32 0 2 0 C2 1.98 2 3.96 2 6 C0.68 6.33 -0.64 6.66 -2 7 C-1.34 4.69 -0.68 2.38 0 0 Z " fill="#203D65" transform="translate(449,486)"/>
<path d="M0 0 C2.31 0 4.62 0 7 0 C7 0.99 7 1.98 7 3 C5.02 3 3.04 3 1 3 C0.67 2.01 0.34 1.02 0 0 Z " fill="#557090" transform="translate(431,471)"/>
<path d="M0 0 C0.66 0.33 1.32 0.66 2 1 C-0.3125 3.5 -0.3125 3.5 -3 6 C-3.99 6 -4.98 6 -6 6 C-5 3 -5 3 -2.5625 1.25 C-1.716875 0.8375 -0.87125 0.425 0 0 Z " fill="#465C8A" transform="translate(289,596)"/>
<path d="M0 0 C0.12375 0.61875 0.2475 1.2375 0.375 1.875 C0.87197356 4.19120832 0.87197356 4.19120832 3 6 C0 8 0 8 -3 8 C-1.125 2.25 -1.125 2.25 0 0 Z " fill="#BCC9D5" transform="translate(419,500)"/>
<path d="M0 0 C-2.48952921 2.66735273 -4.63408134 4.55746343 -8 6 C-8 3 -8 3 -6.8125 1.3125 C-4.44258278 -0.40364695 -2.85974334 -0.23187108 0 0 Z " fill="#405E8E" transform="translate(291,355)"/>
<path d="M0 0 C0.99 0.33 1.98 0.66 3 1 C1.35 2.65 -0.3 4.3 -2 6 C-2.99 5.67 -3.98 5.34 -5 5 C-3.35 3.35 -1.7 1.7 0 0 Z " fill="#446195" transform="translate(483,238)"/>
<path d="M0 0 C1.22589844 0.01353516 1.22589844 0.01353516 2.4765625 0.02734375 C3.41628906 0.04474609 3.41628906 0.04474609 4.375 0.0625 C0.93049263 2.35883824 -1.56312283 2.60266485 -5.625 3.0625 C-5.955 2.4025 -6.285 1.7425 -6.625 1.0625 C-4.21954362 -0.14022819 -2.67503047 -0.03821472 0 0 Z " fill="#4A648F" transform="translate(289.625,135.9375)"/>
<path d="M0 0 C0.66 0.33 1.32 0.66 2 1 C-0.31 3.31 -2.62 5.62 -5 8 C-5 5 -5 5 -2.5 2.3125 C-1.675 1.549375 -0.85 0.78625 0 0 Z " fill="#DDE2EA" transform="translate(427,639)"/>
<path d="M0 0 C1.32 0.33 2.64 0.66 4 1 C3.67 2.65 3.34 4.3 3 6 C1.5 4.6875 1.5 4.6875 0 3 C0 2.01 0 1.02 0 0 Z " fill="#1A3671" transform="translate(450,499)"/>
<path d="M0 0 C0 3.69418201 -1.28179295 5.77836178 -3 9 C-3.33 9 -3.66 9 -4 9 C-4.25 6.75 -4.25 6.75 -4 4 C-2 1.6875 -2 1.6875 0 0 Z " fill="#405788" transform="translate(625,386)"/>
<path d="M0 0 C0.33 0.99 0.66 1.98 1 3 C-0.65 4.32 -2.3 5.64 -4 7 C-4.66 6.67 -5.32 6.34 -6 6 C-4.02 4.02 -2.04 2.04 0 0 Z " fill="#345089" transform="translate(490,231)"/>
</svg>
