<svg fill="none" height="120" viewBox="0 0 116 120" width="116" xmlns="http://www.w3.org/2000/svg">
  <clipPath id="a">
    <path d="m0 1.93173h115.932v115.932h-115.932z"/>
  </clipPath>
  <g clip-path="url(#a)">
    <g fill="#6F6F6F">
      <path
        d="m57.9659 1.93173c-31.9988 0-57.9659 25.93307-57.9659 57.96597s25.933 57.9663 57.9659 57.9663 57.9661-25.9334 57.9661-57.9663-25.9673-57.96597-57.9661-57.96597zm54.1831 57.96597c0 29.92-24.263 54.1833-54.1831 54.1833s-54.18329-24.2633-54.18329-54.1833c0-29.9201 24.26319-54.18336 54.18329-54.18336s54.1831 24.26326 54.1831 54.18336z"/>
      <path
        d="m86.0459 35.2937c.7838.852 1.9084 2.2151 2.5558 3.0329l11.7223-7.463c-.5789-.7838-1.5331-1.9424-2.2146-2.7603l-7.4289 4.9072-.5112.443.3749-.5452 3.2714-6.5429-2.3173-2.3173-6.5429 3.2715-.5452.3748.443-.5111 4.9072-7.429c-.852-.7497-1.7039-1.3971-2.7603-2.215l-7.463 11.7227c.9542.7156 2.181 1.8061 2.9648 2.5217l7.054-3.6122.443-.3408-.3408.443z"/>
      <path
        d="m59.4313 20.4359 3.2033-7.1904.2045-.6475-.0682.6816.3408 9.6099c1.1245.1022 2.2832.2726 3.4418.443l-.5112-14.21036c-1.6016-.17039-3.2032-.3067-4.8049-.37486l-3.1692 7.83782-.1022.5793-.1023-.5793-3.1692-7.83782c-1.6016.06816-3.2033.20447-4.8049.37486l-.5112 14.21036c1.1587-.2045 2.3173-.3408 3.4419-.443l.3407-9.6099-.0681-.6816.2044.6475 3.2033 7.1904z"/>
      <path
        d="m33.4984 31.7837c1.8402-1.9424 2.8966-4.2256 1.0564-6.3725-1.0223-1.1586-2.6921-1.4312-4.1234-.8519l-.1363.0681.0341-.1363c.2045-.5452.3408-2.3172-1.1586-3.544-.7498-.5794-1.6698-.8179-2.5899-.7157-1.738.1704-3.067 1.3631-6.7133 5.4184-1.0905 1.2268-2.6921 3.1692-3.6804 4.43l10.0188 9.5077c3.3055-3.6804 4.6686-5.0776 7.2926-7.8038zm-13.0858-2.3513c2.0106-2.4536 4.1575-4.7027 5.1457-5.5887.3067-.2727.6475-.5453 1.0564-.6816.6475-.1704 1.3291.2726 1.4994.9542.1704.6815-.2726 1.329-.7497 1.8402-1.0564 1.1927-4.9753 5.282-4.9753 5.282zm3.9189 3.7485s3.8167-4.0211 5.0435-5.3161c.4771-.5112.8179-.8179 1.1587-.9882.443-.2045.92-.2727 1.3631.034.4089.2727.6134.7838.5111 1.2609-.1363.5793-.5793 1.1246-.9882 1.5335-.5112.5793-5.0435 5.3843-5.0435 5.4183z"/>
      <path
        d="m57.8634 25.4453v1.8743c17.9247 0 32.4759 14.5852 32.4759 32.4759h1.8742c0-18.9471-15.369-34.3502-34.3501-34.3502zm0 66.8602c-17.9248 0-32.476-14.5852-32.476-32.4759h-1.8742c0 18.9812 15.403 34.3842 34.3842 34.3842"/>
    </g>
    <path d="m57.9663 25.5135v34.3842h-34.3843c0-19.0152 15.369-34.3842 34.3843-34.3842z" fill="#0066b1"/>
    <path d="m92.3159 59.8977c0 18.9812-15.369 34.3843-34.3843 34.3843v-34.3843z" fill="#0066b1"/>
  </g>
</svg>
