<svg version="1.1" id="Layer_1" xmlns="http://www.w3.org/2000/svg" xmlns:xlink="http://www.w3.org/1999/xlink" x="0px" y="0px" viewBox="0 0 591.7 293.7" style="enable-background:new 0 0 591.7 293.7;" xml:space="preserve">
	<g>
		<path class="st0" d="M303,161.8h38.9l-0.4,1.8c-4.5,18.5-21.6,31-42.6,31c-27.1,0-47.6-20.6-47.6-47.8c0-27.2,20.5-47.8,47.8-47.8
		c14.9,0,28.5,6.2,37.5,17.1l19.2-15.3c-12.6-16.4-33.9-26.1-57.3-26.1c-41.9,0-73.5,31-73.5,72.1c0,41.1,31.3,72.1,72.9,72.1
		c40.9,0,70.6-29.9,70.6-71.1v-8.4H303V161.8z"></path>
		<rect x="400.3" y="77.2" class="st0" width="25.5" height="139.3"></rect>
		<path class="st0" d="M531.1,194.4c-26.9,0-47.2-20.5-47.2-47.6s20.3-47.6,47.2-47.6c15.7,0,29.7,7,38.5,19.3l22.1-13.7
		c-13.3-18.9-35.9-30.1-60.6-30.1c-41.9,0-73.5,31-73.5,72.1c0,41.1,31.6,72.1,73.5,72.1c24.7,0,47.3-11.2,60.6-30.1l-22.1-13.7
		C560.8,187.4,546.8,194.4,531.1,194.4z"></path>
		<path class="st0" d="M28,63.1v60.3c3.7-0.8,7.8-1.5,12-2.2V60.3h-9.2C29.3,60.3,28,61.5,28,63.1z"></path>
		<path class="st0" d="M0,151.3c0,3.5,4.1,8.1,18.5,12.4c0.2,0,0.4,0,0.4-0.2c0.1-0.2,0-0.4-0.2-0.4c-4.9-2.1-7.5-4.3-7.5-6.7
		c0-3.9,7.4-7.3,16.8-9.7v84c0,1.6,1.3,2.8,2.8,2.8H40v-99.2C23,136.8,0,142.6,0,151.3z"></path>
		<path class="st0" d="M53.1,35.2v84.3c5.1-0.5,10.4-1,15.9-1.3V32.3H56C54.4,32.3,53.1,33.6,53.1,35.2z"></path>
		<path class="st0" d="M53.1,258.5c0,1.6,1.3,2.8,2.8,2.8h13v-130c-5.5,0.3-10.8,0.7-15.9,1.3L53.1,258.5z"></path>
		<path class="st0" d="M102.4,117.7V2.8c0-1.5-1.2-2.8-2.8-2.8H84.8C83.3,0,82,1.2,82,2.8v114.9c3.3-0.1,6.7-0.1,10.2-0.1
		C95.6,117.6,99.1,117.6,102.4,117.7z"></path>
		<path class="st0" d="M82,130.8v160.1c0,1.5,1.2,2.8,2.8,2.8h14.8c1.5,0,2.8-1.3,2.8-2.8V130.8c-3.4-0.1-6.8-0.1-10.2-0.1
		C88.8,130.7,85.4,130.7,82,130.8z"></path>
		<path class="st0" d="M115.5,261.4h13c1.6,0,2.8-1.3,2.8-2.8v-126c-5.1-0.5-10.4-1-15.9-1.3L115.5,261.4z"></path>
		<path class="st0" d="M128.5,32.3h-13v85.9c5.5,0.3,10.8,0.8,15.9,1.3V35.2C131.4,33.6,130.1,32.3,128.5,32.3z"></path>
		<path class="st0" d="M156.4,63.1c0-1.6-1.3-2.8-2.8-2.8h-9.2v60.9c4.3,0.7,8.3,1.4,12,2.2V63.1z"></path>
		<path class="st0" d="M165.9,138.9c-0.2,0-0.4,0.1-0.4,0.3c0,0.1,0,0.3,0.2,0.4c5.9,2.5,7.5,4.9,7.5,6.6c0,3.7-6.4,7-16.8,9.7v-19.4
		c-3.7-0.8-7.8-1.5-12-2.2v99.2h9.2c1.6,0,2.8-1.3,2.8-2.8v-64.5c17.3-3.8,28-9,28-14.8C184.4,147.6,179.9,142.9,165.9,138.9z"></path>
	</g>
</svg>